<svg xmlns="http://www.w3.org/2000/svg" xmlns:xlink="http://www.w3.org/1999/xlink" width="600" height="400" xmlns:v="https://vecta.io/nano"><style><![CDATA[.B{opacity:.5}.C{clip-path:url(#B)}.D{fill:#fff}.E{opacity:.6}.F{fill-rule:evenodd}.G{opacity:.3}.H{opacity:.76}.I{fill:#d1d4fb}]]></style><defs><path id="A" d="M-1.667-20.138H626.96v419.084H-1.667z"/></defs><clipPath id="B"><use xlink:href="#A"/></clipPath><path d="M153.615 185.315c.008-.257.132-.383.373-.375l7.028.213c.696.021 1.285.127 1.768.318s.871.451 1.163.783.497.728.62 1.19.177.979.16 1.544l-.059 1.931c-.017.567-.101 1.078-.252 1.531s-.381.84-.692 1.152-.712.548-1.208.71-1.088.23-1.783.211l-3.785-.117-.783-2.211-.103-.003-.067 2.188-2.652-.082.272-8.983zm2.453 6.632l4.491.137c.507.016.872-.084 1.092-.302s.34-.608.356-1.175l.048-1.57c.019-.583-.076-.984-.285-1.2s-.566-.333-1.072-.348l-4.299-.131c-.06-.001-.108.016-.144.054s-.054.083-.055.133l-.132 4.402zm12.461-2.611l-.091-.002-.084 2.806c-.004.12.054.183.174.185l7.903.241-.074 2.431-10.361-.314a.33.33 0 0 1-.362-.396l.261-8.599c.007-.257.136-.382.385-.375l10.065.306c.258.007.383.141.375.397l-.074 2.433-2.486.839-.104-.003.038-1.248c.003-.095-.038-.144-.124-.146l-5.316-.161c-.068-.003-.114.016-.137.053a.26.26 0 0 0-.035.122l-.036 1.171 4.376.132-.058 1.907-3.669-.112-.566-1.667zm17.565-.174l-.103-.003.031-1.03c.003-.103-.046-.156-.149-.159l-4.943-.15c-.18-.005-.307.03-.377.105s-.109.186-.113.331l-.008.231c-.005.181.02.298.08.351s.174.096.345.127l5.792.987c.368.063.679.152.934.268a1.77 1.77 0 0 1 .618.444c.158.182.267.401.327.661s.087.564.076.917l-.023.745c-.011.388-.069.725-.173 1.02a1.72 1.72 0 0 1-.486.732c-.22.195-.508.338-.864.43s-.789.133-1.304.117l-8.34-.256.074-2.431 7.477.227c.223.008.373-.028.449-.109s.116-.221.122-.427l.007-.256c.005-.164-.019-.279-.073-.344s-.162-.111-.325-.133l-5.59-.878c-.376-.063-.698-.15-.966-.261a1.84 1.84 0 0 1-.65-.432c-.167-.177-.284-.391-.353-.643s-.098-.548-.089-.891l.021-.657c.02-.678.215-1.198.587-1.56s.979-.53 1.82-.505l8.326.253c.267.008.395.149.387.423l-.059 1.932-2.485.824zm3.52 6.237l.285-9.369 2.652.081-.285 9.371-2.652-.083zm12.492-3.639l-.007-.433-.033-.395.003-.115 2.625.081-.139 4.593c-.007.242-.119.359-.333.354l-7.053-.217c-.696-.02-1.285-.127-1.769-.318s-.87-.449-1.162-.781-.498-.727-.622-1.189-.175-.979-.158-1.544l.058-1.932c.018-.566.102-1.077.253-1.532a2.93 2.93 0 0 1 .691-1.152c.309-.314.713-.549 1.208-.709s1.088-.231 1.784-.211l7.013.213c.25.008.371.14.363.397l-.061 2.021-2.486.827-.103-.005.027-.9c.002-.086-.034-.13-.112-.132l-4.478-.136c-.257-.007-.475.01-.652.052s-.324.119-.439.23-.201.265-.258.456-.091.429-.1.713l-.049 1.648c-.018.564.078.963.286 1.194s.566.352 1.073.367l4.439.135c.095.002.143-.047.146-.15l.045-1.43zm8.194-5.111c.197.006.335.041.417.103a.79.79 0 0 1 .215.289l3.349 6.838c.056.105.136.16.239.162l.141.004c.137.006.209-.061.213-.199l.213-7.052 2.407.073-.274 8.997c-.007.248-.13.369-.372.361l-3.811-.115c-.179-.004-.313-.035-.401-.09s-.17-.154-.244-.303l-3.477-6.831c-.048-.104-.129-.158-.24-.161l-.128-.004a.18.18 0 0 0-.212.2l-.214 7.041-2.408-.074.274-8.983c.008-.257.13-.382.371-.375l3.942.119z" fill="#f1f1f4" class="C"/><circle fill="#e0f3ff" cx="280.221" cy="184.722" r="162.415" class="C"/><g class="C"><linearGradient id="C" gradientUnits="userSpaceOnUse" x1="174.487" y1="235.378" x2="142.916" y2="167.805"><stop offset="0" stop-color="#dbccff"/><stop offset="1" stop-color="#d1bbff"/></linearGradient><path fill="url(#C)" d="M160.831 174.328c-3.995-6.874-11.058-9.705-11.058-9.705l-2.463 1.15 5.546 10.063c-.74 3.868-3.393 5.993-3.393 5.993l-.009-.016s-3.332.671-6.773-1.243l-4.159-10.711-2.463 1.151s-2.36 7.234.349 14.708c0 0 1.051 2.425 1.232 2.636.976 1.14 3.521 2.453 8.44 2.149l16.978 32.387c-1.41 2.424-1.652 5.477-.376 8.207 2.078 4.445 7.356 6.361 11.802 4.283s6.363-7.354 4.286-11.801a8.85 8.85 0 0 0-6.535-4.977l-13.94-33.786c3.318-3.501 4.02-6.261 3.767-7.853-.054-.336-1.231-2.635-1.231-2.635zm13.962 55.853l-4.497 2.104-4.068-2.844.43-4.945 4.498-2.1 4.067 2.842-.43 4.943z"/><linearGradient id="D" gradientUnits="userSpaceOnUse" x1="175.716" y1="238.018" x2="144.143" y2="170.444"><stop offset="0" stop-color="#b5a6e7"/><stop offset="1" stop-color="#7760bf"/></linearGradient><path fill="url(#D)" d="M162.062 176.964c-3.994-6.875-11.057-9.706-11.057-9.706l-2.463 1.151 5.546 10.062c-.74 3.869-3.394 5.994-3.394 5.994l-.007-.017s-3.333.672-6.774-1.243l-4.16-10.71-2.462 1.151s-2.36 7.234.349 14.708c0 0 3.839 5.146 9.671 4.785l16.978 32.386c-1.409 2.428-1.652 5.477-.376 8.207a8.88 8.88 0 0 0 11.802 4.287c4.446-2.076 6.363-7.357 4.286-11.801-1.276-2.732-3.77-4.502-6.535-4.979l-13.939-33.787c4.018-4.242 2.535-10.488 2.535-10.488zm13.963 55.853l-4.498 2.102-4.067-2.844.429-4.943 4.499-2.1 4.067 2.842-.43 4.943z"/><path d="M137.294 173.633l-1.232-2.637 2.463-1.15 1.232 2.637zm11.249-5.237l-1.232-2.636 2.463-1.151 1.232 2.636zm22.98 66.534l-1.231-2.634 4.498-2.102 1.231 2.634z" fill="#e5e2ff"/><linearGradient id="E" gradientUnits="userSpaceOnUse" x1="167.867" y1="221.218" x2="154.559" y2="192.735"><stop offset="0" stop-color="#b5a6e7"/><stop offset="1" stop-color="#7760bf"/></linearGradient><path fill="url(#E)" d="M150.947 195.544l13.71 26.352c3.602.166 5.536-2.586 5.536-2.586l-11.162-27.542c-5.01-.185-8.084 3.776-8.084 3.776zm18.188 23.98c-.401.348-1.009.805-1.775 1.16-.608.285-1.243.475-1.893.566l-13.731-25.811c.672-.594 1.821-1.475 3.3-2.166 1.11-.518 2.243-.848 3.396-1l10.703 27.251z"/><path fill="#e5e2ff" d="M169.135 219.524l1.058-.215s-1.57 2.791-5.536 2.586l.81-.645c0 .001 1.952-.224 3.668-1.726z"/><linearGradient id="F" gradientUnits="userSpaceOnUse" x1="150.784" y1="195.193" x2="158.869" y2="191.416"><stop offset="0" stop-color="#8b8be0"/><stop offset="1" stop-color="#a177b7"/></linearGradient><path opacity=".62" fill="url(#F)" d="M150.947 195.544l.789-.104s2.343-2.431 6.696-3.166l.6-.506s-1.749-.306-4.473.967-3.612 2.809-3.612 2.809z"/><linearGradient id="G" gradientUnits="userSpaceOnUse" x1="155.702" y1="195.182" x2="153.415" y2="190.287"><stop offset="0" stop-color="#fff"/><stop offset="1" stop-color="#a177b7"/></linearGradient><path opacity=".62" fill="url(#G)" d="M147.312 193.138s6.594-1.172 12.215-5.686l1.783 4.321s-2.022-2.001-6.459-.193c-5.191 2.116-4.907 6.292-4.907 6.292l-2.632-4.734z"/><linearGradient id="H" gradientUnits="userSpaceOnUse" x1="173.501" y1="222.128" x2="158.83" y2="190.728"><stop offset="0"/><stop offset="1" stop-color="#fff"/></linearGradient><path fill="url(#H)" d="M161.31 191.773c-1.265-.909-2.713-.937-2.713-.937l13.271 32.055 1.599-1.652-12.157-29.466z" class="B"/><path d="M161.31 191.773s-1.393 4.284 2.605 6.314l-2.605-6.314z" class="D"/><linearGradient id="I" gradientUnits="userSpaceOnUse" x1="292.007" y1="398.946" x2="292.007" y2="305.481"><stop offset="0" stop-color="#6456c0"/><stop offset="1" stop-color="#5f2c95"/></linearGradient><path fill="url(#I)" d="M361.085 398.946h-49.244c-5.156-28.623-17.141-65.867-17.141-65.867-2.913-1.729-8.603.396-8.603.396l-18 65.471h-44.989c-2.389-40.398 19.718-86.258 19.718-86.258l-.011-.01c-.073-.156-.775-1.563-.586-2.504.074-.41.828-1.186 1.676-1.949 1.215-1.111 2.661-2.221 2.661-2.221l83.931-.523a32.12 32.12 0 0 0 1.93 1.082h.012c1.832 1.105 4.314 2.824 4.314 4.082 0 1.73-.68 2.85-.846 3.102l-.043.053c17.996 33.963 25.221 85.146 25.221 85.146z"/><radialGradient id="J" cx="245.779" cy="365.916" r="28.317" gradientTransform="matrix(0.6462 0.1491 -0.3852 1.6696 228.6227 -282.2483)" gradientUnits="userSpaceOnUse"><stop offset="0" stop-color="#4b474b"/><stop offset="1"/></radialGradient><path fill="url(#J)" d="M264.793 369.556c-6.025 26.109-19.101 45.387-29.207 43.055s-13.416-25.387-7.391-51.498 19.1-45.389 29.207-43.059 13.415 25.39 7.391 51.502z" class="B"/><radialGradient id="K" cx="372.138" cy="353.489" r="28.316" gradientTransform="matrix(0.6386 -0.179 0.4623 1.6499 -67.4034 -151.7457)" gradientUnits="userSpaceOnUse"><stop offset="0" stop-color="#4b474b"/><stop offset="1"/></radialGradient><path fill="url(#K)" d="M351.745 359.794c7.232 25.803 5 48.988-4.988 51.787s-23.945-15.848-31.178-41.652-4.996-48.988 4.994-51.785 23.944 15.849 31.172 41.65z" class="B"/><linearGradient id="L" gradientUnits="userSpaceOnUse" x1="261.756" y1="366.136" x2="286.271" y2="366.136"><stop offset="0" stop-color="#9e8cef"/><stop offset="1" stop-color="#caafee"/></linearGradient><path fill="url(#L)" d="M262.274 398.993l-.518-.09c5.726-33.736 20.26-62.029 20.408-62.311l.06-.078 3.702-3.236.345.395-3.664 3.203c-.655 1.277-14.726 29.08-20.333 62.117z"/><linearGradient id="M" gradientUnits="userSpaceOnUse" x1="319.04" y1="366.138" x2="294.524" y2="366.138"><stop offset="0" stop-color="#9e8cef"/><stop offset="1" stop-color="#caafee"/></linearGradient><path fill="url(#M)" d="M318.524 398.993c-5.611-33.057-20.072-61.133-20.723-62.381l-3.277-2.941.351-.389 3.368 3.043c.15.285 15.068 28.84 20.797 62.578l-.516.09z"/><linearGradient id="N" gradientUnits="userSpaceOnUse" x1="288.716" y1="398.946" x2="288.716" y2="305.481"><stop offset="0" stop-color="#ccf"/><stop offset="1" stop-color="#755cbb"/></linearGradient><path fill="url(#N)" d="M336.753 310.646c0 1.73-.68 2.85-.846 3.102l-.043.053c-17.477 3.949-30.771 20.262-30.771 20.262 9.523 18.273 25.404 64.885 25.404 64.885h-18.656c-5.156-28.623-17.141-65.867-17.141-65.867-2.913-1.729-8.603.396-8.603.396l-18 65.471h-11.651c4.17-27.428 16.48-60.914 16.48-60.914-12.101-14.09-30.1-25.344-30.1-25.344l-.011-.01-2.137-1.34 1.551-1.164c7.784 7.471 32.888 17.223 33.663 17.531l-31.987-19.48c1.215-1.111 2.661-2.221 2.661-2.221l83.931-.523a32.12 32.12 0 0 0 1.93 1.082l-22.924 12.613 27.25-8.532z" class="H"/><linearGradient id="O" gradientUnits="userSpaceOnUse" x1="299.599" y1="352.214" x2="299.599" y2="326.722"><stop offset="0" stop-color="#ccf"/><stop offset="1" stop-color="#755cbb"/></linearGradient><path fill="url(#O)" d="M294.7 333.079l9.797-6.357-2.328 6.357-1.707 19.135z" class="H"/><linearGradient id="P" gradientUnits="userSpaceOnUse" x1="270.071" y1="342.839" x2="270.071" y2="317.864"><stop offset="0" stop-color="#ccf"/><stop offset="1" stop-color="#755cbb"/></linearGradient><path fill="url(#P)" d="M286.098 333.476l-10.205-5.77-21.849-9.842 27.822 18.387 1.658 6.588z" class="H"/><path fill="#fe9083" d="M314.177 136.653l.115.691-1.74 5.93c-2.055 5.898-4.611 10.089-6.529 12.698-1.664 2.254-2.848 3.332-2.848 3.332-15.287-4.799-22.819-19.75-25.711-27.188-.02-.031-.03-.073-.041-.115a47.21 47.21 0 0 1-1.153-3.269l-.262-.921.189-.388.031-.052.734-1.572c2.001-4.38 3.332-8.476 4.19-11.703.744-2.745 1.143-4.862 1.331-5.982l.137-.891 7.124 3.761 24.548 12.992a39.92 39.92 0 0 0-.523 6.224c-.021 1.309.02 2.482.096 3.478.07 1.215.195 2.179.291 2.809v.01c-.001.062.009.104.021.156z"/><linearGradient id="Q" gradientUnits="userSpaceOnUse" x1="295.404" y1="164.732" x2="295.404" y2="127.422"><stop offset="0" stop-color="#d5cdf8"/><stop offset="1" stop-color="#f3edfb"/></linearGradient><path fill="url(#Q)" d="M307.364 160.95a21.06 21.06 0 0 1-5.07 3.708c-.041.031-.082.053-.125.074l-.146-.084-.01-.01c-.535-.326-2.357-1.446-4.809-3.29-6.413-4.831-17.12-14.595-20.181-27.755-.009-.021-.009-.031-.02-.052-.355-1.562-.607-3.154-.733-4.81l-.073-1.309s2.127 4.998 5.813 10.394c4.338 6.349 10.843 13.274 18.619 13.316 6.725.042 10.172-4.558 11.922-8.801.744-1.802 1.184-3.53 1.414-4.819.01-.011.01-.022.01-.022l.18-.995v-.01l.053-.388c.063-.472.084-.744.084-.744s2.578 16.094-6.928 25.597z"/><linearGradient id="R" gradientUnits="userSpaceOnUse" x1="276.197" y1="146.04" x2="314.61" y2="146.04"><stop offset="0" stop-color="#ccf"/><stop offset="1" stop-color="#755cbb"/></linearGradient><path fill="url(#R)" d="M307.364 160.95a21.06 21.06 0 0 1-5.07 3.708h-.125l-.146-.01-.01-.01c-.535-.326-2.357-1.446-4.809-3.29-6.413-4.831-17.12-14.595-20.181-27.755-.009-.021-.009-.031-.02-.052-.355-1.562-.607-3.154-.733-4.81l-.073-1.309s2.127 4.998 5.813 10.394c0 0 4.233 11.629 13.391 17.392 4.589 2.882 8.068 2.462 10.621.765 2.557-1.687 4.213-4.63 5.189-6.852.973-2.232 1.287-4.316 1.34-5.846.01-.346.01-.66 0-.943.744-1.802 1.184-3.53 1.414-4.819.01-.011.01-.022.01-.022l.18-.995v-.01l.053-.388c.063-.472.084-.744.084-.744s2.578 16.093-6.928 25.596z" class="B"/><linearGradient id="S" gradientUnits="userSpaceOnUse" x1="284.419" y1="313.802" x2="284.419" y2="125.799"><stop offset="0" stop-color="#9e8cef"/><stop offset="1" stop-color="#caafee"/></linearGradient><path fill="url(#S)" d="M366.206 255.964l-.166.088c-.861.102-3.535-.484-7.033-3.512l-.01-.01c0-.01-.01-.021-.031-.031-.01-.012-.02-.033-.041-.043-2.936-2.566-6.453-6.854-9.963-13.871-7.023-14.027-9.033-23.395-9.357-25.031l-.041-.252-4.096 6.496c-2.777 8.352-8.039 42.904-7.943 44.393s4.66 8.738 4.568 9.629c0 0 0 .012-.012.02-.125.904-2.178 2.883-2.768 5.041-.396 1.434 2.393 5.961 4.35 9.346v.01c1.018 1.762 1.805 3.207 1.805 3.75 0 1.586-4.971 9.328-4.971 9.328v4.168l-.072.076-.23.205-.188.156c-1.885 1.49-9.881 6.363-34.856 7.705-29.598 1.582-49.316-7.941-49.316-7.941l1.487-4.078s-1.383-1.184-1.487-1.781c-.094-.598 1.089-1.99 1.089-1.99s-2.975-1.58-2.975-3.572c0-1.979 5.96-8.131 5.762-13.402-.199-5.258-4.767-9.92-5.366-12.896s7.744-10.318 7.744-10.318c-7.146-22.631-8.54-53.004-8.54-53.004l-1.382-1.593s-8.539 19.456-16.282 28.979a67.22 67.22 0 0 1-2.902 3.332c-2.158 2.334-4.453 4.523-6.664 6.441-5.364 4.676-10.236 7.742-11.473 7.502-1.99-.398-9.932-16.08-9.565-32.164.168-7.648 4.778-16.208 9.565-23.07l1.551-2.158c3.395-4.62 6.653-8.245 8.214-9.901l.953-.994s-1.089-3.51-1.833-6.56c-.01-.073-.031-.147-.052-.22 0-.031-.011-.073-.021-.104-.011-.052-.021-.074-.021-.074-.44-1.875-.713-3.499-.461-3.898.66-1.058 4.505-2.252 5.166-3.038.66-.796 3.436-14.165 5.552-15.621 2.032-1.394 5.606-2.41 17.518-7.094l1.813-.712c13.359-5.291 26.465-11.713 26.465-11.713l5.029-6.181h2.243l-.734 1.572-.031.052c.355 1.592.765 3.123 1.226 4.579.011.042.021.084.041.115 6.915 21.814 24.705 28.844 24.705 28.844 12.365-9.126 12.123-23.616 12.123-23.616v-1.991l2.314.691 1.584 3.772s2.68 4.169 13.307 8.842c1.83.807 3.801 1.823 5.834 2.986 9.721 5.521 20.533 14.061 21.363 15.873.082.189.176.482.281.901v.011c1.143 4.483 3.49 21.278 5.668 27.27 1.365 3.743 3.514 5.808 5.094 6.874.01.012.01.012.02.012 1.172.809 2.035 1.057 2.035 1.057l.471 2.735c4.554 28.725-4.106 48.223-6.057 49.583z"/><linearGradient id="T" gradientUnits="userSpaceOnUse" x1="206.398" y1="196.649" x2="252.183" y2="196.649"><stop offset="0" stop-color="#ccf"/><stop offset="1" stop-color="#755cbb"/></linearGradient><path fill="url(#T)" d="M252.183 201.736l-8.633 2.903-1.382-1.593s-8.539 19.456-16.282 28.979a67.22 67.22 0 0 1-2.902 3.332c-2.158 2.334-4.453 4.523-6.664 6.441l-6.579-28.361-3.343-21.529c3.395-4.62 6.653-8.245 8.214-9.901l.953-.994s-1.089-3.51-1.833-6.56c-.01-.073-.031-.147-.052-.22 0-.031-.011-.073-.021-.104-.011-.052-.021-.074-.021-.074-.44-1.875-.713-3.499-.461-3.898.66-1.058 4.505-2.252 5.166-3.038.66-.796 3.436-14.165 5.552-15.621 0 0-1.383 12.834 5.961 29.116l3.573 5.028 10.456 8.4c0 .002 3.972 5.274 8.298 7.694z" class="B"/><linearGradient id="U" gradientUnits="userSpaceOnUse" x1="204.982" y1="249.302" x2="204.982" y2="161.39"><stop offset="0" stop-color="#9e8cef"/><stop offset="1" stop-color="#dac7f3"/></linearGradient><path fill="url(#U)" d="M227.206 224.954c-1.854 13.756-22.359 24.348-22.359 24.348-4.567 0-9.67-7.941-14.301-17.738s-4.914-37.935-5.155-39.675c-.251-1.74-2.829-5.218-2.986-6.706-.147-1.488 4.169-4.568 4.169-4.568l-.031-.074-.031-.073c-.451-.964-2.986-6.402-2.809-7.397.2-1.089 5.05-3.468 5.05-3.468l.304 5.354s11.294-2.137 15.119-10.885l.67-2.683 1.887 1.258v11.514s.387 1.792.984 1.792 4.998-2.2 5.92-1.896c.933.304 1.843 6.464 3.08 7.25 1.226.796 4.505 3.08 4.998 4.169.219.493.241 2.264.262 4.348.031 2.557.052 5.574.43 7.272.702 3.07 6.654 14.091 4.799 27.858z"/><linearGradient id="V" gradientUnits="userSpaceOnUse" x1="356.158" y1="223.966" x2="415.15" y2="223.966"><stop offset="0" stop-color="#a999f1"/><stop offset="1" stop-color="#dac7f3"/></linearGradient><path fill="url(#V)" d="M414.735 213.167c-.922 1.457-5.553 4.506-6.746 5.699-1.193 1.184 0 5.102 0 5.102-19.459 20.652-39.74 30.992-41.783 31.996-.115.055-.166.088-.166.088-12.219-8.217-11.172-21.74-7.115-33.139 3.877-10.941 10.518-19.919 10.813-20.306l.01-.012c.229-.094 3.719-1.539 6.213-1.727.826-.063 1.584.262 2.295.711 1.486.922 2.746 2.379 3.961 1.77 1.793-.898 5.793-10.362 8.506-10.624 1.898-.178 4.527 1.75 6.277 2.849.764.482 1.361.809 1.654.723.994-.262 4.371-4.305 4.641-4.409.264-.116 1.803 1.017 1.803 1.017l-1.078 1.341c1.654 9.532 7.082 15.943 7.082 15.943l3.635-5.32c-.002.001.932 6.841-.002 8.298z"/><path fill="#cb4d7a" d="M314.226 136.244l-.049.409c-.053.283-.117.555-.201.838 0 0 0 .011-.01.022-1.246 4.62-6.287 9.345-12.646 7.071-6.944-2.482-20.167-30.488-20.167-30.488l1.331-5.982 31.381 25.564.344 2.42.017.146z"/><path fill="#ee8183" d="M209.739 131.119s-1.918-10.587-1.058-18.396-.222-16.675-.222-16.675-1.896-.794-3.286 0-4.632 8.867-3.176 15.352.331 22.035.331 22.035h-2.184l-4.764-6.551-2.316-.662s-13.333 12.573-13.135 20.049l1.743 6.651 16.422-.563 10.72-12.241.925-8.999z"/><linearGradient id="W" gradientUnits="userSpaceOnUse" x1="185.793" y1="149.402" x2="185.793" y2="126.222"><stop offset=".016" stop-color="#ffc2a9"/><stop offset="1" stop-color="#ff9595"/></linearGradient><path fill="url(#W)" d="M193.063 126.223s.346 8.338 2.216 15.484c0 0-.313 2.928-3.738 3.126l-.843-.943s-.596 3.325-3.623 3.572l-2.879-2.877.745 2.382s-1.042 2.531-3.771 2.432c0 0-4.566-3.574-4.864-8.239l4.514-3.821v-2.928l5.363-3.771.099-2.135c0 0 3.143-2.332 6.781-2.282z"/><linearGradient id="X" gradientUnits="userSpaceOnUse" x1="200.389" y1="148.854" x2="200.389" y2="110.482"><stop offset="0" stop-color="#ffeadb"/><stop offset=".994" stop-color="#c27cb6"/></linearGradient><path fill="url(#X)" d="M208.872 110.482s-.803 2.043-1.945 2.837-4.449 1.402-4.449 1.402l-.15 18.715h-2.184l-4.764-6.551s2.416 3.738 2.564 6.551l-1.886.926-1.638-5.608-.776 4.036.772 5.023s2.826-2.432 7.937-2.531l.769 1.396s-9.247 7.66-11.381 12.176c0 0 4.566-5.807 14.988-12.208l.993-3.077 1.317-7.346c-.001-.001-1.249-10.586-.167-15.741z" class="E"/><linearGradient id="Y" gradientUnits="userSpaceOnUse" x1="199.145" y1="174.957" x2="199.145" y2="115.803"><stop offset=".016" stop-color="#ffc2a9"/><stop offset="1" stop-color="#ff9595"/></linearGradient><path fill="url(#Y)" d="M216.625 143.096c-.86 2.578-9.86 13.296-10.854 15.622-.996 2.316-1.593 5.354-1.593 5.354-4.421 9.565-15.119 10.885-15.119 10.885l-.493-8.633s-5.752-3.312-6.727-5.123l-.01-.032-.115-.304c-.293-1.687-.042-7.942-.042-7.942l10.068-4.075c4.369-5.658 14.993-12.206 14.993-12.206l.492-2.965c-7.627-3.751-6.349-15.098-5.061-16.491 1.289-1.383 3.667-1.383 3.667-1.383s2.787 9.126 4.568 13.4c1.794 4.264 7.084 11.316 6.226 13.893z"/><path d="M186.282 128.505s1.125 10.423 4.417 15.386c0 0-4.186-5.194-4.516-13.251l.099-2.135zm-5.462 5.906s1.095 8.387 6.256 13.052c0 0-4.57-2.282-6.256-10.124v-2.928z" fill="#e28183"/><linearGradient id="Z" gradientUnits="userSpaceOnUse" x1="188.566" y1="165.726" x2="207.165" y2="165.726"><stop offset=".016" stop-color="#d1a1d6"/><stop offset=".994" stop-color="#bd89c4"/></linearGradient><path opacity=".91" fill="url(#Z)" d="M207.165 156.495s-11.351 11.022-18.599 9.83l.493 8.633s11.913-1.041 15.785-13.572c-.001-.001 1.392-3.603 2.321-4.891z"/><linearGradient id="a" gradientUnits="userSpaceOnUse" x1="416.367" y1="210.987" x2="416.367" y2="131.885"><stop offset=".016" stop-color="#ffc2a9"/><stop offset="1" stop-color="#ff9595"/></linearGradient><path fill="url(#a)" d="M447.134 171.479s-10.426 19.058-22.633 24.915h-4.168l-9.631 14.593s-6.221-3.906-6.684-16.74c0 0 2.18-2.274 2.713-4.842 0 0-3.438-2.702-4.369-4.683-.922-1.991-1.256-7.94-1.918-10.393s-6.285-7.544-7.541-8.204-6.947-.995-6.947-.995-.799-2.054 0-3.038c.797-.996 9.66-4.443 14.488-1.131 0 0 .336 2.514.859 3.845.533 1.32 4.768 6.013 5.428 6.013s3.51-2.377 4.766-4.232c1.205-1.781 7.609-15.58 9.16-20.243a.45.45 0 0 1 .041-.136c.02-.073.053-.146.063-.209.021-.052.031-.094.045-.135.006-.022.018-.032.018-.053 1.195-4.034 8.139-11.776 11.85-13.893 0 0 1.582-.398 2.439 1.582 0 0-2.973 8.476-6.086 13.504-.523.849-1.088 1.845-1.676 2.913-2.662 4.872-5.647 11.252-6.076 12.185l-.053.115 1.656.849 4.473-4.243 4.59-4.348 10.529 11.116-1.037 1.32-3.289 4.223 1.664.303 3.877-4.285 3.449 4.327z"/><linearGradient id="b" gradientUnits="userSpaceOnUse" x1="425.711" y1="185.644" x2="425.711" y2="146.344"><stop offset="0" stop-color="#ffeadb"/><stop offset=".994" stop-color="#c27cb6"/></linearGradient><path fill="url(#b)" d="M444.69 175.53l-3.328 4.895s-18.285-14.101-22.256-15.295-5.428-.398-5.428-.398l-4.1 5.228s7.545 6.685 8.203 15.684c0 0-2.512-11.378-11.051-14.825.66 0 3.51-2.377 4.766-4.232 1.205-1.781 7.609-15.58 9.16-20.243-.213.797-.484 2.348.166 3.573.9 1.666 6.203.095 6.516 0l-6.064 12.185-.053.115 1.656.849 4.473-4.243-2.242 5.207 16.324 2.881-3.289 4.223 1.664.303 4.883 4.093z" class="E"/><linearGradient id="c" gradientUnits="userSpaceOnUse" x1="433.464" y1="172.079" x2="433.464" y2="154.462"><stop offset="0" stop-color="#ffb0b0"/><stop offset=".984" stop-color="#ffc2a9"/></linearGradient><path fill="url(#c)" d="M431.942 154.478s3.178-.463 5.23 3.639l-.465 1.323s3.096.606 6.086 5.625c0 0-2.648 4.83-9.195 7.014 0 0-3.045-.86-3.574-3.441l.596-1.653-2.383 1.786s-2.846.861-4.104-3.375l7.809-10.918z"/><linearGradient id="d" gradientUnits="userSpaceOnUse" x1="443.682" y1="174.793" x2="443.682" y2="165.131"><stop offset="0" stop-color="#ffb0b0"/><stop offset=".984" stop-color="#ffc2a9"/></linearGradient><path fill="url(#d)" d="M448.087 170.161s.664-3.044-2.576-5.03l-6.291 6.948s.191 2.228 2.914 2.713c0 0 4.303-1.455 5.953-4.631z"/><linearGradient id="e" gradientUnits="userSpaceOnUse" x1="402.362" y1="194.048" x2="420.333" y2="194.048"><stop offset=".016" stop-color="#d1a1d6"/><stop offset=".994" stop-color="#bd89c4"/></linearGradient><path opacity=".91" fill="url(#e)" d="M402.362 184.722s7.281 8.127 17.971 11.672l-4.607 6.981-9.609-12.204.615-1.766c-.001 0-3.842-2.889-4.37-4.683z"/><path fill="#e28183" d="M436.708 159.44s-3.045 5.03-6.088 7.544l-.596 1.653s5.908-3.987 8.082-8.594c0 .001-.703-.503-1.398-.603z"/><linearGradient id="f" gradientUnits="userSpaceOnUse" x1="377.357" y1="256.063" x2="377.357" y2="167.519"><stop offset="0" stop-color="#ccf"/><stop offset="1" stop-color="#755cbb"/></linearGradient><path fill="url(#f)" d="M414.735 213.167c-.922 1.457-5.553 4.506-6.746 5.699-1.193 1.184 0 5.102 0 5.102-19.459 20.652-39.74 30.992-41.783 31.996-.115.055-.166.088-.166.088-1.594.197-9.336-1.982-17.078-17.467-7.023-14.027-9.033-23.395-9.357-25.031l-.041-.252 1.705-2.314 2.537-28.581 1.781 5.752c6.748-8.141 13.107-20.641 13.107-20.641l.281.901v.011c1.143 4.483 3.49 21.278 5.668 27.27 1.365 3.743 3.514 5.808 5.094 6.874l.01.021-.01.012c-6.215 5.667-9.293 13.817-10.813 20.306-1.396 5.949-1.488 10.506-1.488 10.506s1.719-8.066 7.146-17.77c1.969-3.531 4.84-6.684 7.68-9.271 2.135-1.949 4.264-3.581 5.992-4.798 1.486.922 2.746 2.379 3.961 1.77-8.174 12.269-7.973 36.556-.295 31.923 7.67-4.629 9.426-14.457 9.426-14.457-1.813-11.979-1.27-25.482.184-28.05 1.77.059 6.83 3.619 7.123 3.533-.457 14.092 6.16 23.5 6.16 23.5l4.369-6.756c-6.357-10.718-5.889-21.153-5.889-21.153.264-.116 1.803 1.017 1.803 1.017l-1.078 1.341c1.654 9.532 7.082 15.943 7.082 15.943l3.635-5.32c0-.001.934 6.839 0 8.296z" class="B"/><linearGradient id="g" gradientUnits="userSpaceOnUse" x1="182.405" y1="238.225" x2="330.497" y2="238.225"><stop offset="0" stop-color="#ccf"/><stop offset="1" stop-color="#755cbb"/></linearGradient><path fill="url(#g)" d="M330.497 301.313v4.168l-.072.076-.23.205-.188.156c-1.885 1.49-9.881 6.363-34.856 7.705-29.598 1.582-49.316-7.941-49.316-7.941l1.487-4.078s-1.383-1.184-1.487-1.781c-.094-.598 1.089-1.99 1.089-1.99s-2.975-1.58-2.975-3.572c0-1.791 4.861-6.98 5.647-11.852.094-.523.137-1.035.115-1.551-.199-5.236-4.726-9.877-5.355-12.855-.011-.029-.011-.041-.011-.041-.595-2.973 7.744-10.318 7.744-10.318-7.146-22.631-8.54-53.004-8.54-53.004l-1.382-1.593s-8.539 19.456-16.282 28.979c-7.743 9.531-19.058 17.676-21.039 17.275-4.567 0-9.67-7.941-14.301-17.738s-4.914-37.935-5.155-39.675c-.251-1.74-2.829-5.218-2.986-6.706 4.967 8.539 12.876 6.024 12.876 6.024-5.731.125-8.707-10.592-8.707-10.592l-.031-.074-.031-.073-2.797-7.386c.314.356 6.862 7.679 13.19 3.164 6.486-4.63 9.828-13.599 9.828-13.599v11.514s.387 1.792.984 1.792c-.388 5.302-1.508 11.755-2.871 18.115-2.944 13.758-6.978 27.041-6.978 27.041s10.938-5.949 14.784-21.038c1.833-7.217 2.137-13.494 1.959-18.063-.158-3.907-.671-6.579-.88-7.554-.01-.073-.031-.147-.052-.22 0-.031-.011-.073-.021-.104 0-.021-.011-.042-.011-.052l1.06 2.242 2.011 4.987c2.336 19.363-2.484 48.542-2.484 48.542 7.02-8.74 8.477-28.06 8.173-32.753l-.43-7.272-.262-4.348 14.364 8.568-2.65-8.4 10.456 8.4s9.397 11.318 19.058 12.639c9.659 1.33 45.124.533 45.124.533s-30.833 1.98-39.833 4.631-10.718 5.689-10.718 5.689c6.507 33.098 42.514 44.258 43.637 44.59-32.667-4.902-47.871-32.678-47.871-32.678s-.534 15.621 1.982 21.572 17.338 20.516 36.396 23.553c1.604.252 3.184.406 4.745.482 16.072.754 29.379-7.461 30.742-8.34.072-.051.117-.074.117-.074s-.012.023-.035.053c-.516.785-7.104 10.049-33.714 11.063-1.614.064-3.185.055-4.715-.006-24.683-1.041-37.246-17.469-37.246-17.469s-9.124 4.904-3.3 12.176c.063.072.126.156.189.23 1.718 1.979 5.5 4.4 9.975 6.893a11.81 11.81 0 0 0 .366.211c5.405 2.984 11.745 6.066 16.649 8.611.029.008.051.02.072.031 2.997 1.563 5.458 2.902 6.83 3.908 1.395 1.018 1.676 1.666.326 1.823-6.884.797-32.951-4.891-34.009-3.311-1.058 1.594 1.289 5.689 1.289 5.689 23.93 11.861 75.133 6.014 76.745 5.836-42.852 10.969-77.909-2.922-77.909-2.922l1.165 4.104s19.088 6.613 41.582 7.146c22.504.525 36.534-5.227 36.534-5.227l2.44-4.166z" class="B"/><linearGradient id="h" gradientUnits="userSpaceOnUse" x1="312.966" y1="213.44" x2="341.271" y2="213.44"><stop offset="0" stop-color="#ccedff"/><stop offset="1" stop-color="#755cbb"/></linearGradient><path fill="url(#h)" d="M312.966 207.083s17.045.926 28.305 3.904l-5.807 8.811s-8.736-7.686-22.498-12.715z" class="B"/><linearGradient id="i" gradientUnits="userSpaceOnUse" x1="287.292" y1="263.119" x2="328.89" y2="263.119"><stop offset="0" stop-color="#ccedff"/><stop offset="1" stop-color="#755cbb"/></linearGradient><path fill="url(#i)" d="M328.89 254.062s-10.629 8.873-21.086 12.973-20.512 4.502-20.512 4.502 6.01 1.783 20.799-.596 19.85-10.393 19.85-10.393l.949-6.486z" class="B"/><linearGradient id="j" gradientUnits="userSpaceOnUse" x1="289.218" y1="281.93" x2="333.663" y2="281.93"><stop offset="0" stop-color="#ccedff"/><stop offset="1" stop-color="#755cbb"/></linearGradient><path fill="url(#j)" d="M333.663 288.226v.01c-19.674 5.082-44.652-2.209-44.444-3.1s6.842.396 22.223-2.684c14.91-2.986 20.314-8.287 20.639-8.613-.125.904-2.178 2.883-2.768 5.041-.396 1.433 2.393 5.961 4.35 9.346z" class="B"/><linearGradient id="k" gradientUnits="userSpaceOnUse" x1="250.968" y1="235.358" x2="250.968" y2="185.477"><stop offset="0" stop-color="#ccedff"/><stop offset="1" stop-color="#755cbb"/></linearGradient><path fill="url(#k)" d="M280.22 209.749c-16.806 1.711-21.332 6.395-21.332 6.395-4.724.596-15.338-11.504-15.338-11.504l-1.382-1.593s-8.539 19.456-16.282 28.979a67.22 67.22 0 0 1-2.902 3.332l1.1-2.475s1.802-.857 2.326-10.318c.535-9.449-3.971-23.552-4.002-25.47s-.691-11.62-.691-11.62l14.364 8.568-2.65-8.4 10.456 8.4s4.096 6.163 14.438 11.295c9.752 4.852 20.69 4.466 21.895 4.411z" class="B"/><linearGradient id="l" gradientUnits="userSpaceOnUse" x1="254.984" y1="239.55" x2="254.984" y2="201.74"><stop offset="0" stop-color="#ccedff"/><stop offset="1" stop-color="#755cbb"/></linearGradient><path fill="url(#l)" d="M242.167 203.047l10.012-1.307s4.002 2.649 12.035 5.919l-6.697 9.877s2.657 14.082 10.284 22.014c0 0-20.244-11.244-23.089-20.697l-2.545-15.806z" class="B"/><linearGradient id="m" gradientUnits="userSpaceOnUse" x1="195.225" y1="191.215" x2="195.225" y2="162.647"><stop offset="0" stop-color="#ccedff"/><stop offset="1" stop-color="#755cbb"/></linearGradient><path fill="url(#m)" d="M183.715 173.082l2.859 7.533s2.917 10.166 8.707 10.592 11.452-17.046 11.452-17.046v-11.514s-6.159 13.204-12.81 14.693-10.208-4.258-10.208-4.258z" class="B"/><linearGradient id="n" gradientUnits="userSpaceOnUse" x1="218.343" y1="166.057" x2="229.856" y2="166.057"><stop offset="0" stop-color="#ccedff"/><stop offset="1" stop-color="#755cbb"/></linearGradient><path fill="url(#n)" d="M218.343 167.12s5.161 10.319 11.513 13.495c0 0-7.553-18.331-5.96-29.116-.001 0-2.777 1.729-5.553 15.621z" class="B"/><linearGradient id="o" gradientUnits="userSpaceOnUse" x1="343.499" y1="235.358" x2="343.499" y2="182.407"><stop offset="0" stop-color="#ccf"/><stop offset="1" stop-color="#755cbb"/></linearGradient><path fill="url(#o)" d="M343.806 182.407l1.781 5.752 1.807 47.2s-4.576-8.98-7.789-21.805l1.666-2.566c0-.001 2.802-17.789 2.535-28.581z" class="H"/><linearGradient id="p" gradientUnits="userSpaceOnUse" x1="403.031" y1="223.968" x2="403.031" y2="196.298"><stop offset="0" stop-color="#ccf"/><stop offset="1" stop-color="#755cbb"/></linearGradient><path fill="url(#p)" d="M398.653 196.298s-1.01 23.188 8.844 25.191l.492 2.479c0 0-12.75-.471-9.336-27.67z" class="B"/><linearGradient id="q" gradientUnits="userSpaceOnUse" x1="371.65" y1="222.733" x2="371.65" y2="201.58"><stop offset="0" stop-color="#ccf"/><stop offset="1" stop-color="#755cbb"/></linearGradient><path fill="url(#q)" d="M382.216 203.35s-.379.832-3.961-1.77c0 0-12.395 8.778-17.17 21.153 0 0 7.639-11.371 11.703-12.598s5.047 3.307 5.047 3.307 1.609-6.392 4.381-10.092z" class="G"/><linearGradient id="r" gradientUnits="userSpaceOnUse" x1="189.244" y1="193.04" x2="189.244" y2="185.183"><stop offset="0" stop-color="#ccedff"/><stop offset="1" stop-color="#755cbb"/></linearGradient><path fill="url(#r)" d="M182.405 185.183s4.77 8.791 13.703 6.032c0 0-5.354 3.61-10.717.673 0 .001-3.328-5.712-2.986-6.705z" class="B"/><linearGradient id="s" gradientUnits="userSpaceOnUse" x1="210.229" y1="216.987" x2="210.229" y2="174.057"><stop offset="0" stop-color="#ccf"/><stop offset="1" stop-color="#755cbb"/></linearGradient><path fill="url(#s)" d="M213.638 174.056s6.557 24.516-10.549 42.931c0 0 11.111-5.703 13.628-18.901s-3.079-24.03-3.079-24.03z" class="B"/><linearGradient id="t" gradientUnits="userSpaceOnUse" x1="320.683" y1="186.77" x2="320.683" y2="154.462"><stop offset="0" stop-color="#ccedff"/><stop offset="1" stop-color="#755cbb"/></linearGradient><path fill="url(#t)" d="M331.13 154.462s-.738 11.066-6.041 19.007-15.828 13.3-15.828 13.3 13.201-4.864 19.256-11.712 2.613-20.595 2.613-20.595z" class="B"/><linearGradient id="u" gradientUnits="userSpaceOnUse" x1="278.357" y1="182.402" x2="278.357" y2="137.813"><stop offset="0" stop-color="#ccedff"/><stop offset="1" stop-color="#755cbb"/></linearGradient><path fill="url(#u)" d="M263.602 137.813s0 9.252 2.978 18.682 28.826 25.908 28.826 25.908-26.643-11.067-31.804-21.018 0-23.572 0-23.572z" class="B"/><linearGradient id="v" gradientUnits="userSpaceOnUse" x1="263.3" y1="190.558" x2="337.776" y2="190.558"><stop offset="0" stop-color="#8642a0"/><stop offset="1" stop-color="#6456c0"/></linearGradient><path fill="url(#v)" d="M263.3 181.878v15.071s34.689-.279 73.588 2.297l.889-13.565c-.001 0-33.815-4.01-74.477-3.803z"/><text transform="matrix(.848 .0266 -.0313 .9995 266.4536 192.395)" fill="#f9f7f7" font-family="LilyUPC" font-size="14.518">Ajaykumarthakur.in</text><linearGradient id="w" gradientUnits="userSpaceOnUse" x1="269.721" y1="147.581" x2="318.19" y2="147.581"><stop offset="0" stop-color="#ccf"/><stop offset="1" stop-color="#755cbb"/></linearGradient><path fill="url(#w)" d="M318.19 139.817c-.818 9.744-3.783 16.533-6.949 21.111-4.357 6.287-9.072 8.435-9.072 8.435-4.713-2.053-8.8-4.609-12.319-7.428-14.942-11.944-19.761-28.498-20.129-29.86 6.308 15.234 15.57 24.464 22.588 29.661 5.658 4.202 9.859 5.783 9.859 5.783v-4.871c-1.121-.419-2.211-.901-3.248-1.425-12.363-6.234-18.857-19.226-21.897-27.628-.009-.021-.009-.031-.02-.052-1.644-4.547-2.284-7.743-2.284-7.743h2.243l-.734 1.572-.031.052c.355 1.592.765 3.123 1.226 4.579.011.042.021.084.041.115 6.915 21.814 24.705 28.844 24.705 28.844 12.365-9.126 12.123-23.616 12.123-23.616v-1.991l2.314.691 1.584 3.771z" class="B"/><linearGradient id="x" gradientUnits="userSpaceOnUse" x1="394.316" y1="220.815" x2="394.316" y2="192.766"><stop offset="0" stop-color="#ccf"/><stop offset="1" stop-color="#755cbb"/></linearGradient><path fill="url(#x)" d="M391.53 192.765s-3.361 10.979-.184 28.05c0 0 1.59-21.638 2.777-23.524s4.529-.993 4.529-.993-5.251-2.896-7.122-3.533z" class="G"/><linearGradient id="y" gradientUnits="userSpaceOnUse" x1="354.671" y1="252.456" x2="354.671" y2="167.519"><stop offset="0" stop-color="#ccf"/><stop offset="1" stop-color="#755cbb"/></linearGradient><path fill="url(#y)" d="M358.925 252.456c-2.936-2.566-6.453-6.854-9.963-13.871-7.023-14.027-9.033-23.395-9.357-25.031l1.664-2.566 2.232-21.583 2.086-1.246s7.449-8.225 13.107-20.641c.082.189.176.482.281.901v.011c1.143 4.483 3.49 21.278 5.668 27.27 1.365 3.743 3.514 5.808 5.094 6.874 0 0-12.896 19.132-13.529 32.784-.553 12.426 2.215 16.469 2.717 17.098z" class="B"/><linearGradient id="z" gradientUnits="userSpaceOnUse" x1="263.351" y1="292.355" x2="263.351" y2="268.003"><stop offset="0" stop-color="#ccf"/><stop offset="1" stop-color="#755cbb"/></linearGradient><path fill="url(#z)" d="M282.347 292.354s-23.249-3.814-32.74-9.934a7.92 7.92 0 0 0 .104-1.563c-.199-5.236-4.726-9.877-5.355-12.855.105.283.787 1.857 4.087 4.686 2.084 1.789 5.238 4.096 9.975 6.893a11.81 11.81 0 0 0 .366.211c6.705 3.959 12.477 6.641 16.649 8.611.029.008.051.02.072.031 3.75 1.76 6.18 2.924 6.83 3.908z" class="B"/><linearGradient id="AA" gradientUnits="userSpaceOnUse" x1="310.65" y1="285.666" x2="310.65" y2="273.839"><stop offset="0" stop-color="#ccf"/><stop offset="1" stop-color="#755cbb"/></linearGradient><path fill="url(#AA)" d="M332.081 273.839c-.125.904-2.178 2.883-2.768 5.041 0 0-8.525 9.033-40.094 6.256.209-.893 6.842.396 22.223-2.684 14.911-2.986 20.315-8.287 20.639-8.613z" class="B"/><path fill="#7a4ac0" d="M337.331 151.646l-20.18 6.538-5.91 2.745-.029.011-3.848.011-5.195.011-3.248.261-1.717.126-4.895.387-2.459.199-24.204-8.758-4.327-1.562-19.906-7.209 1.813-.712c13.359-5.291 26.465-11.713 26.465-11.713l5.029-6.181h2.243c2.001-4.38 3.332-8.476 4.19-11.703l1.331-5.982.137-.891 7.124 3.761 24.025 19.216c-.021 1.309.02 2.482.096 3.478l.344 2.42c.063-.472.084-.744.084-.744l2.314.691 1.584 3.772s2.68 4.169 13.307 8.842c1.828.806 3.799 1.822 5.832 2.986z" class="B"/><linearGradient id="AB" gradientUnits="userSpaceOnUse" x1="310.129" y1="133.68" x2="310.129" y2="52.789"><stop offset=".016" stop-color="#ffc2a9"/><stop offset="1" stop-color="#ff9595"/></linearGradient><path fill="url(#AB)" d="M321.96 133.238s-9.408 2.116-19.791-2.913-19.11-19.854-19.643-23.553c-.524-3.708 3.971-13.368 3.971-20.912s-3.7-20.515 2.514-27.534c6.223-7.009 34.805-8.067 44.076.933 0 0 2.871 7.208 2.871 11.284 0 .985-.178 2.431-.441 4.097-.082.618-.197 1.278-.303 1.959-.828 4.935-1.969 10.959-1.434 13.6.186.921.479 1.771.824 2.578v.01c1.143 2.64 2.842 4.746 3.145 7.03.398 2.984-3.605 24.159-15.789 33.421z"/><linearGradient id="AC" gradientUnits="userSpaceOnUse" x1="279.974" y1="101.038" x2="279.974" y2="77.19"><stop offset=".016" stop-color="#ffc2a9"/><stop offset="1" stop-color="#ff9595"/></linearGradient><path fill="url(#AC)" d="M286.418 83.729s-2.567-6.44-9.019-6.54c0 0-3.772 1.489-4.367 4.368 0 0 1.389 10.422 2.978 15.286s7.413 4.16 7.413 4.16 5.068-7.755 2.995-17.274z"/><linearGradient id="AD" gradientUnits="userSpaceOnUse" x1="321.373" y1="110.057" x2="322.373" y2="104.851"><stop offset="0" stop-color="#e1616a"/><stop offset="1" stop-color="#ff8883"/></linearGradient><path fill="url(#AD)" d="M311.214 104.951s2.15-.169 3.076.526 4.299 3.97 8.568 4.864 7.133-2.741 8.039-2.928 1.91 1.1 1.91 1.1-.395-1.484-2.615-2.161c0 0-.898 3.423-7.086 2.251s-8.816-3.921-8.816-3.921l-.314-.562c0 .002-1.745.363-2.762.831z"/><linearGradient id="AE" gradientUnits="userSpaceOnUse" x1="312.346" y1="106.073" x2="312.346" y2="53.963"><stop offset="0" stop-color="#ffeadb"/><stop offset=".994" stop-color="#c27cb6"/></linearGradient><path fill="url(#AE)" d="M302.085 72.898l.084-.662s6.17-10.829 18.379-11.126 14.967 7.352 14.967 7.352l2.262-3.433-5.15-10.47-35.871-.597-8.734 7.047-1.105 17.252 3.883 22.776 9.45 5.035 2.666-2.365c-.986-7.627-6.656-14.595-6.656-14.595l4.135-2.871s10.619 5.141 16.758 3.602c0 0 4.615-13.471 4.352-23.452-.002.002-15.733 2.33-19.42 6.507z" class="E"/><path d="M301.538 73.7s.594-3.901 7.182-5.462l13.289-3.208s-1.297 4.278-3.742 5.883c0 0-7.758-.282-11.686.61s-5.043 2.177-5.043 2.177zm33.977-5.238s-3.725 2.871-6.252 9.72c0 0 2.43-3.177 4.664-3.126 1.529.034 1.285 1.545 1.285 1.545s1.521-4.093.303-8.139z" fill="#38368e"/><linearGradient id="AF" gradientUnits="userSpaceOnUse" x1="309.808" y1="84.733" x2="309.808" y2="74.41"><stop offset="0" stop-color="#cf6074"/><stop offset="1" stop-color="#f37270"/></linearGradient><path fill="url(#AF)" d="M304.001 84.733s.396-8.238 8.434-10.323c0 0 2.881 3.723 3.18 7.941-.001 0-4.272-.794-11.614 2.382z"/><linearGradient id="AG" gradientUnits="userSpaceOnUse" x1="330.397" y1="88.009" x2="330.397" y2="79.025"><stop offset="0" stop-color="#cf6074"/><stop offset="1" stop-color="#ff817f"/></linearGradient><path fill="url(#AG)" d="M327.026 88.009s.652-6.559 4.418-8.984c0 0 2.568 1.924 2.303 7.414 0 0-2.252-.813-6.721 1.57z"/><path d="M304.001 84.733s2.613 3.209 9.924 3.838c0 0 1.395-2.121 1.26-6.271 0 0-6.717-.644-11.184 2.433zm23.025 3.276v.959s1.127 2.349 5.162 2.746c0 0 1.301-2.027 1.41-5.314.001 0-2.566-.641-6.572 1.609z" fill="#ffebed"/><path d="M311.815 82.13s-1.854 2.256-1.688 5.812c0 0 2.434.572 3.797.63 0 0 1.602-2.228 1.26-6.271.001-.001-2.128-.458-3.369-.171zm19.043 4.383s-1.051 1.124-1.25 4.573c0 0 1.439.628 2.58.628 0 0 1.471-2.087 1.41-5.314.001 0-1.023-.39-2.74.113z" fill="#7f9ec9"/><path d="M311.214 88.188s-.662-4.45 1.883-6.153l2.088.265s.693 3.524-1.26 6.271l-2.711-.383zm20.568-1.873s-.947 1.977-1.387 5.06c0 0 .725.297 1.793.339 0 0 1.43-1.747 1.41-5.314.001 0-1.083-.288-1.816-.085z" fill="#38368e"/><path d="M304.001 84.733s4.863-2.83 13.15-1.215l-1.537-1.167s-5.908-1.836-11.613 2.382zm23.025 3.276s3.9-2.071 8.447-.976l-1.871-1.388c.001.001-3.05-.465-6.576 2.364z" fill="#131163"/><path d="M309.261 84.733s1.322-.291 2.514.913c-.001 0-1.631.48-2.514-.913zm19.552 3.838s2.074-.404 2.791.542c0 0-1.109.764-2.791-.542z" class="D"/><path d="M304.489 85.214s3.779 3.737 9.832 4.63l.158-2.204-.555.931c.001 0-5.82-.345-9.435-3.357zm22.537 3.754s.674 2.415 5.6 3.507l-.162-1.183-.275.422c-.001 0-3.499-.446-5.163-2.746z" fill="#c6659c"/><path fill="#cb5f7d" d="M317.151 98.629s1.834-.397 5.209 0 7.172 1.323 9.244 0c0 0-2.754 2.757-5.139 3.177s-6.023-1.677-6.023-1.677l-1.586.028c0 0-1.224-.602-1.705-1.528z"/><path fill="#9f4a8b" d="M319.087 100.153s.826-.531 1.523-.399 1.398 1.144 1.398 1.144-1.462-.776-2.921-.745z"/><path fill="#ffbcaf" d="M331.604 98.629c.883-.86-3.684-8.992-5.869-9.293s-4.232 9.117-4.232 9.117l5.982.82c2.946.394 4.119-.644 4.119-.644z"/><linearGradient id="AH" gradientUnits="userSpaceOnUse" x1="331.242" y1="93.235" x2="331.242" y2="73.022"><stop offset="0" stop-color="#ffeadb"/><stop offset=".994" stop-color="#c27cb6"/></linearGradient><path fill="url(#AH)" d="M334.87 73.025c-1.238-.157-5.605 5.154-5.605 5.154s-2.775 8.603-2.232 11.148c.545 2.557 7.293 3.908 7.293 3.908l.279-.45v-.01c-.346-.807-.639-1.656-.824-2.578-.535-2.64.605-8.665 1.434-13.6 0 0 .271-1.016.303-1.959.032-.795-.083-1.55-.648-1.613z" class="E"/><linearGradient id="AI" gradientUnits="userSpaceOnUse" x1="311.215" y1="134.697" x2="311.215" y2="36.596"><stop offset="0" stop-color="#2e33a0"/><stop offset="1" stop-color="#0665a5"/></linearGradient><path fill="url(#AI)" d="M334.669 107.956c-1.391-2.912-.533-4.432-12.635-6.013-17.133-2.253-18.598 2.975-21.51 2.179-.105-.032-.23-.074-.346-.126-3.152-1.225-10.581-8.528-10.77-18.366-.201-10.226 6.653-17.476 6.653-17.476-2.482-2.086-3.479-8.131-.795-10.719 2.68-2.578 7.247-1.98 18.459-.796 11.221 1.194 11.221.503 11.221.503 3.561.912 5.605 4.254 6.184 5.323.113.209.166.335.166.335l1.395-1.288c3.771 5.458 3.08 11.409 3.08 11.409s6.15-12.509 5.447-14.28c-1.279-3.269-4.832-8.035-5.051-8.34l-.008-.01s-.998-9.523-3.975-9.523-15.682 2.871-15.682 2.871c1.393-3.269 1.191-7.041 1.191-7.041s-.02.021-.053.053c-4.146 3.719-8.201 4.128-13.945 6.79-2.887 1.351-4.25 2.598-5.373 3.896l-.387.462-.408.492c-.398.503-.807 1.016-1.3 1.54-.021.031-.053.053-.063.063-.021.021-.03.031-.03.031-.462.503-1.006 1.016-1.666 1.561-3.771 3.07-12.069 5.124-13.065 8.372-.995 3.237 1.257 7.668 2.453 12.236 1.183 4.569.639 8.602.639 8.602s3.948 5.092 2.64 12.541c-1.163 6.674-3.708 7.764-3.708 7.764-1.792 3.677-.943 7.114-.943 7.114 3.667 14.584 18.836 23.27 18.836 23.27 13.496 5.029 22.369 2.839 22.369 2.839 9.828-6.412 13.194-27.597 13.336-28.582-.167.26-1.987 3.089-2.356 2.314zm-6.055 13.505c-2.379-.398-2.881-6.422-3.668-7.219-.795-.786-5.102-.461-5.102-.461s-3.969 4.505-5.553 4.631c-1.594.136-10.057-3.311-8.227-8.465 1.824-5.166 8.227-5.825 8.227-5.825s3.311 2.776 8.266 3.101c4.967.324 6.756-.587 7.346-.849.594-.272 3.791 1.184 3.707 5.689-.052 3.133-2.609 9.796-4.996 9.398z"/><path fill="#d2726c" d="M327.999 91.144s4.275 5.312 3.867 7.309c-.447 2.187-5.4 3.353-5.4 3.353s3.973-1.371 4.787-3.353c0 0-1.02-4.024-3.254-7.309z"/><linearGradient id="AJ" gradientUnits="userSpaceOnUse" x1="336.982" y1="72.92" x2="336.982" y2="50.29"><stop offset="0" stop-color="#ffeadb"/><stop offset=".994" stop-color="#8860c7"/></linearGradient><path fill="url(#AJ)" d="M335.771 72.92s.691-5.95-3.08-11.409c3.025-5.407 3.469-11.222 3.469-11.222l.008.01c1.027 2.526 1.615 7.439 1.615 7.439l3.436.9c.702 1.773-5.448 14.282-5.448 14.282z" class="E"/><linearGradient id="AK" gradientUnits="userSpaceOnUse" x1="306.144" y1="134.697" x2="306.144" y2="36.596"><stop offset="0" stop-color="#ccc2db"/><stop offset=".994" stop-color="#8860c7"/></linearGradient><path fill="url(#AK)" d="M331.13 62.464c-.578-1.068-2.623-4.411-6.184-5.323 0 0 0 .691-11.221-.503-11.213-1.184-15.779-1.781-18.459.796-2.683 2.588-1.687 8.633.795 10.719 0 0-6.854 7.25-6.653 17.476.189 9.837 7.618 17.141 10.77 18.366l-.148 1.09s.559 22.526 6.035 24.317c5.471 1.782 16.826.859 17.887 1.918 1.004 1.006-.148 2.734-.252 2.891-.012.011-8.885 2.201-22.381-2.828 0 0-15.169-8.686-18.836-23.27 0 0-.848-3.437.943-7.114 0 0 2.545-1.09 3.708-7.764 1.309-7.449-2.64-12.541-2.64-12.541s.544-4.033-.639-8.602c-1.195-4.568-3.448-9-2.453-12.236 6.35.994 10.52-2.316 10.52-2.316s1.11-1.54 6.022-2.336 24.666 1.194 24.666 1.194-1.982-1.644-6.152-2.734c-3.939-1.037-17.393.167-18.838.283 1.541-.272 16.795-2.892 18.533-2.368 1.844.544 8.445 3.573 8.445 3.573-.598-3.028-6.504-10.32-6.504-10.32s-8.342.146-13.801 1.289c-4.873 1.016-7.543 3.248-8.067 3.708l1.3-1.54.408-.492.387-.462 1.908-.324 9.574-3.866c3.217-1.718 7.336-5.971 7.836-6.495.033-.032.053-.053.053-.053s.201 3.772-1.191 7.041c8.088-.996 10.822-.493 10.822-.493 3.678 5.207 3.807 19.319 3.807 19.319z" class="E"/><linearGradient id="AL" gradientUnits="userSpaceOnUse" x1="312.719" y1="134.673" x2="312.719" y2="130.458"><stop offset="0" stop-color="#776d7e"/><stop offset="1" stop-color="#9d68c2"/></linearGradient><path fill="url(#AL)" d="M301.319 131.383s4.959-1.177 12.441-.875 11.785.332 9.928 3.714c0 0-9.396 2.123-22.369-2.839z" class="B"/><linearGradient id="AM" gradientUnits="userSpaceOnUse" x1="325.087" y1="43.637" x2="325.087" y2="40.506"><stop offset="0" stop-color="#1f77d1"/><stop offset="1" stop-color="#0686c9"/></linearGradient><path fill="url(#AM)" d="M327.325 43.144s4.551-1.774 6.346-1.483c0 0-.713-.949-1.455-1.147s-15.713 3.123-15.713 3.123 9.334-1.088 10.822-.493z"/><linearGradient id="AN" gradientUnits="userSpaceOnUse" x1="305.139" y1="53.946" x2="305.139" y2="44.688"><stop offset="0" stop-color="#1f77d1"/><stop offset="1" stop-color="#0686c9"/></linearGradient><path fill="url(#AN)" d="M318.097 44.831s-.361 4.953-1.941 6.748l-18.533 2.368-5.44-.959s2.105-.899 4.417-3.599 14.397-5.352 21.497-4.558z"/><linearGradient id="AO" gradientUnits="userSpaceOnUse" x1="338.689" y1="58.64" x2="338.689" y2="50.29"><stop offset="0" stop-color="#1f77d1"/><stop offset="1" stop-color="#0686c9"/></linearGradient><path fill="url(#AO)" d="M336.159 50.29s1.506 4.873 1.623 7.45l3.436.9c0 0-1.043-3.686-5.059-8.35z"/><linearGradient id="AP" gradientUnits="userSpaceOnUse" x1="283.448" y1="95.387" x2="272.765" y2="82.299"><stop offset="0" stop-color="#ffeadb"/><stop offset=".994" stop-color="#b060f4"/></linearGradient><path opacity=".8" fill="url(#AP)" d="M285.654 92.475s-1.302-6.253-4.498-9.346-6.834-2.102-6.834-2.102.993 11.596 2.036 14.425 2.629 3.574 2.629 3.574-2.232-1.957-2.53-5.792-.397-9.247.446-9.891 4.253 1.871 4.253 1.871-1.077 1.319-1.723 4.737 1.737 5.899 2.63 5.849-.049-3.953.1-5.078 2.135-.878 3.491 1.753z"/><linearGradient id="AQ" gradientUnits="userSpaceOnUse" x1="284.565" y1="93.7" x2="279.31" y2="87.261"><stop offset="0" stop-color="#ffeadb"/><stop offset=".994" stop-color="#b060f4"/></linearGradient><path opacity=".8" fill="url(#AQ)" d="M282.468 84.702s-3.489 2.292-3.113 6.992 3.063 4.496 3.072 3.509-.511-3.527-.24-4.964 2.593-.787 2.593-.787-1.527-3.731-2.312-4.75z"/><path d="M337.024 105.641s-4.332 19.774-13.336 28.582c0-.001 10.27-4.035 13.336-28.582zm-4.808-65.127s2.285 1.777 2.721 7.958-2.246 13.04-2.246 13.04 3.436-5.132 3.766-10.757-2.431-9.529-4.241-10.241z" fill="#34c7ff"/><linearGradient id="AR" gradientUnits="userSpaceOnUse" x1="304.519" y1="54.774" x2="322.612" y2="54.774"><stop offset="0" stop-color="#1f77d1"/><stop offset="1" stop-color="#0686c9"/></linearGradient><path fill="url(#AR)" d="M304.519 53.453s5.289 1.805 11.096 2.317l6.998.627s-2.336-2.263-7.303-2.944-10.791 0-10.791 0z"/><linearGradient id="AS" gradientUnits="userSpaceOnUse" x1="330.038" y1="108.877" x2="335.524" y2="108.877"><stop offset="0" stop-color="#1f77d1"/><stop offset="1" stop-color="#0686c9"/></linearGradient><path fill="url(#AS)" d="M330.085 106.073s2.531 0 3.527 3.176a26.5 26.5 0 0 1 1.016 4.715l.896-3.482s-1.17-4.409-2.387-5.401c-.875-.715-2.385-1.44-3.1-1.266l.048 2.258z"/><linearGradient id="AT" gradientUnits="userSpaceOnUse" x1="323.263" y1="104.797" x2="329.177" y2="104.797"><stop offset="0" stop-color="#1f77d1"/><stop offset="1" stop-color="#0686c9"/></linearGradient><path fill="url(#AT)" d="M323.263 102.897l.426 3.771s3.086.249 5.125-.596l.363-2.282c0 .001-3.932-.992-5.914-.893z"/><path d="M337.331 151.646s18.047 13.183 20.393 17.717 3.287 18.757 6.455 24.91l-3.682-17.959c-1.521-7.894-1.156-8.005-1.998-9.941s-14.326-11.29-21.168-14.727zm-3.234 73.386s-8.701 37.236-8.303 39.752 6.023 7.648 6.287 9.055c0 0-4.305 5.768-4.105 7.041s7.541 9.352 7.346 11.848c-.055.725-4.824 8.586-4.824 8.586s5.385-7.727 5.652-8.959-6.598-11.553-6.799-12.602c-.52-2.715 3.424-4.709 3.553-6.498.135-1.785-5.334-6.15-5.379-9.064s6.572-39.159 6.572-39.159zm1.767 88.768s18.805 42.574 25.221 85.146c0 0-1.072-41.547-25.221-85.146z" fill="#34c7ff"/><path fill="#ffbcaf" d="M216.625 143.096s-4.867-1.039-6.886-5.283-.701-10.39-.701-10.39 3.81 7.308 5.708 9.804 2.407 5.34 1.879 5.869z"/><path fill="#36d1f7" d="M366.771 120.9l3.373 96.175a7.09 7.09 0 0 0 7.082 6.838h165.676c3.848 0 6.996-3.068 7.086-6.916l2.32-97.301a7.09 7.09 0 0 0-7.131-7.255l-171.371 1.125c-3.993.026-7.178 3.344-7.035 7.334z" class="E"/><path fill="#744ca2" d="M542.901 224.177H377.226c-3.979 0-7.205-3.115-7.346-7.094l-3.369-96.174c-.074-2 .654-3.898 2.035-5.344a7.3 7.3 0 0 1 5.258-2.262l171.369-1.125c1.992.008 3.885.767 5.289 2.198s2.156 3.322 2.107 5.326l-2.316 97.299a7.31 7.31 0 0 1-7.352 7.176zm2.323-111.475h-.045l-171.373 1.125a6.78 6.78 0 0 0-4.881 2.1c-1.285 1.343-1.957 3.105-1.893 4.964l3.373 96.174a6.8 6.8 0 0 0 6.82 6.586h165.676a6.87 6.87 0 0 0 6.824-6.664l2.322-97.298c.041-1.861-.652-3.618-1.957-4.946a6.77 6.77 0 0 0-4.866-2.041z"/><linearGradient id="AU" gradientUnits="userSpaceOnUse" x1="366.912" y1="119.152" x2="552.421" y2="119.152"><stop offset="0" stop-color="#9d68c2"/><stop offset="1" stop-color="#aec2ff"/></linearGradient><path fill="url(#AU)" d="M367.019 125.799H552.11l.297-5.072a7.77 7.77 0 0 0-7.813-8.221l-171.305 1.354a6.43 6.43 0 0 0-6.377 6.547l.107 5.392z" class="E"/><linearGradient id="AV" gradientUnits="userSpaceOnUse" x1="404.65" y1="189.217" x2="404.65" y2="133.266"><stop offset="0" stop-color="#ccedff"/><stop offset="1" stop-color="#9d68c2"/></linearGradient><path fill="url(#AV)" d="M376.323 133.558v55.659h56.655v-55.951z" class="G"/><linearGradient id="AW" gradientUnits="userSpaceOnUse" x1="500.056" y1="161.938" x2="500.056" y2="137.293"><stop offset="0" stop-color="#ccedff"/><stop offset="1" stop-color="#9d68c2"/></linearGradient><path fill="url(#AW)" d="M487.733 137.292h24.645v24.646h-24.645z" class="G"/><linearGradient id="AX" gradientUnits="userSpaceOnUse" x1="529.133" y1="161.938" x2="529.133" y2="137.293"><stop offset="0" stop-color="#ccedff"/><stop offset="1" stop-color="#9d68c2"/></linearGradient><path fill="url(#AX)" d="M516.812 137.292h24.643v24.646h-24.643z" class="G"/><linearGradient id="AY" gradientUnits="userSpaceOnUse" x1="470.491" y1="161.938" x2="470.491" y2="137.293"><stop offset="0" stop-color="#ccedff"/><stop offset="1" stop-color="#9d68c2"/></linearGradient><path fill="url(#AY)" d="M458.169 137.292h24.645v24.646h-24.645z" class="G"/><path d="M478.431 176.307h63.023v5.904h-63.023zm-15.762 8.985h78.785v1.827h-78.785zm.742-20.212h15.07v1.828h-15.07zm29.108 0h15.072v1.828h-15.072zm29.078 0h15.072v1.828h-15.072zm-63.428 23.18h25.344v1.827h-25.344zm4.5 2.935h78.785v1.826h-78.785zm-4.5 2.935h83.285v1.826h-83.285zm0 2.934h83.285v1.828h-83.285zm4.5 11.863h78.785v1.826h-78.785zm-4.5 2.935h83.285v1.826h-83.285zm0 2.934h83.285v1.828h-83.285zm0-14.8h79.936v1.83h-79.936zm4.5 2.938h78.785v1.825h-78.785zm-4.5 2.932h67.479v1.828h-67.479z" class="I"/><path fill="#e0ffff" d="M392.196 178.055c-8.889 0-16.117-7.23-16.117-16.117a16.14 16.14 0 0 1 16.117-16.118 16.14 16.14 0 0 1 16.117 16.118 16.14 16.14 0 0 1-16.117 16.117zm0-31.187c-8.309 0-15.07 6.761-15.07 15.07a15.09 15.09 0 0 0 15.07 15.069 15.09 15.09 0 0 0 15.068-15.069 15.09 15.09 0 0 0-15.068-15.07z"/><circle cx="392.195" cy="161.938" r="8.759" class="D"/><path fill="#e0ffff" d="M432.978 149.383c-8.885 0-16.115-7.23-16.115-16.118a16.14 16.14 0 0 1 16.115-16.118 16.14 16.14 0 0 1 16.119 16.118 16.14 16.14 0 0 1-16.119 16.118zm0-31.187c-8.307 0-15.066 6.76-15.066 15.069a15.09 15.09 0 0 0 15.066 15.07c8.311 0 15.072-6.761 15.072-15.07s-6.762-15.069-15.072-15.069z"/><g class="D"><path d="M441.222 133.266c0 4.553-3.691 8.243-8.244 8.243a8.24 8.24 0 0 1-8.24-8.243c0-4.553 3.691-8.242 8.24-8.242a8.25 8.25 0 0 1 8.244 8.242zm-67.719-15.02l1.178-1.786 6.367 5.582-.979 1.36z"/><path d="M381.212 118.246l-1.178-1.786-6.371 5.582.979 1.36zm109.381-.574h57.039v2.859h-57.039z"/></g><linearGradient id="AZ" gradientUnits="userSpaceOnUse" x1="205.433" y1="101.384" x2="205.433" y2="75.587"><stop offset="0" stop-color="#d93de3"/><stop offset="1" stop-color="#ff6dba"/></linearGradient><path fill="url(#AZ)" d="M190.431 76.381v24.75l29.604.253.4-25.797z"/><linearGradient id="Aa" gradientUnits="userSpaceOnUse" x1="221.201" y1="101.384" x2="221.201" y2="75.587"><stop offset="0" stop-color="#a242ea"/><stop offset="1" stop-color="#fe117e"/></linearGradient><path fill="url(#Aa)" d="M220.435 75.587l1.931 3.252-.966 22.521-1.365.024z"/><g class="D"><path d="M195.716 84.735l2.735-3.969 14.783 12.408-2.268 3.024z"/><path d="M213.613 84.735l-2.734-3.969-14.782 12.408 2.267 3.024z"/></g><linearGradient id="Ab" gradientUnits="userSpaceOnUse" x1="200.956" y1="373.143" x2="214.906" y2="262.07"><stop offset="0" stop-color="#067eff"/><stop offset="1" stop-color="#3e37a0"/></linearGradient><path opacity=".81" fill="url(#Ab)" d="M259.496 367.706H158.193a8.3 8.3 0 0 1-8.294-8.107l-1.891-83.092a8.3 8.3 0 0 1 8.294-8.484h105.474c4.67 0 8.421 3.854 8.292 8.523l-2.278 83.092a8.3 8.3 0 0 1-8.294 8.068z"/><path fill="#473da2" d="M259.496 367.966H158.193c-4.613 0-8.451-3.75-8.556-8.363l-1.891-83.088c-.053-2.322.813-4.518 2.436-6.178s3.797-2.576 6.12-2.576h105.474a8.48 8.48 0 0 1 6.132 2.59 8.49 8.49 0 0 1 2.422 6.203l-2.28 83.09a8.51 8.51 0 0 1-8.554 8.322zm-103.194-99.682c-2.181 0-4.22.859-5.745 2.418a7.98 7.98 0 0 0-2.287 5.799l1.891 83.09c.098 4.33 3.701 7.854 8.032 7.854h101.303c4.382 0 7.91-3.434 8.031-7.816l2.281-83.088a7.98 7.98 0 0 0-2.274-5.824c-1.527-1.568-3.572-2.432-5.758-2.432H156.302z"/><path d="M175.315 285.017h53.276v2.279h-53.276zm0 5.548h26.638v2.279h-26.638zm0 4.631h26.638v2.281h-26.638zm29.627 0h21.193v2.281h-21.193zm-29.627 4.635h42.946v2.279h-42.946zm0 4.629h15.286v2.281h-15.286zm18.428 13.898h26.437v2.279h-26.437zm-18.428-9.263h47.908v2.279h-47.908zm0 4.629h36.858v2.285h-36.858zm0 4.634h17.337v2.279h-17.337zm0 4.633h26.638v2.281h-26.638zm0 4.629h7.643v2.281h-7.643zm10.786 0h27.726v2.281h-27.726zm7.642 4.498h26.437v2.281h-26.437zm-18.428 0h17.337v2.281h-17.337zm0 4.629h26.638v2.283h-26.638zm0 4.635h7.643v2.281h-7.643zm10.786 0h27.726v2.281h-27.726z" class="D"/></g><linearGradient id="Ac" gradientUnits="userSpaceOnUse" x1="526.642" y1="98.577" x2="526.642" y2="89.213"><stop offset="0" stop-color="#459fff"/><stop offset="1" stop-color="#a96dff"/></linearGradient><circle fill="url(#Ac)" cx="526.642" cy="93.896" r="4.682" class="C"/><linearGradient id="Ad" gradientUnits="userSpaceOnUse" x1="86.608" y1="208.304" x2="86.608" y2="196.652"><stop offset="0" stop-color="#459fff"/><stop offset="1" stop-color="#a96dff"/></linearGradient><circle fill="url(#Ad)" cx="86.608" cy="202.479" r="5.827" class="C"/><linearGradient id="Ae" gradientUnits="userSpaceOnUse" x1="540.394" y1="98.577" x2="540.394" y2="89.213"><stop offset="0" stop-color="#b31a8f"/><stop offset="1" stop-color="#fe117e"/></linearGradient><circle fill="url(#Ae)" cx="540.394" cy="93.896" r="4.682" class="C"/><linearGradient id="Af" gradientUnits="userSpaceOnUse" x1="238.473" y1="129.398" x2="238.473" y2="122.777"><stop offset="0" stop-color="#b31a8f"/><stop offset="1" stop-color="#fe117e"/></linearGradient><circle fill="url(#Af)" cx="238.473" cy="126.088" r="3.311" class="C"/><linearGradient id="Ag" gradientUnits="userSpaceOnUse" x1="460.228" y1="275.487" x2="460.228" y2="268.868"><stop offset="0" stop-color="#8642a0"/><stop offset="1" stop-color="#6456c0"/></linearGradient><path fill="url(#Ag)" d="M463.538 272.177c0 1.832-1.48 3.311-3.307 3.311a3.31 3.31 0 1 1 0-6.62 3.31 3.31 0 0 1 3.307 3.309z" class="C"/><linearGradient id="Ah" gradientUnits="userSpaceOnUse" x1="116.031" y1="308.146" x2="116.031" y2="302.228"><stop offset="0" stop-color="#8642a0"/><stop offset="1" stop-color="#6456c0"/></linearGradient><circle fill="url(#Ah)" cx="116.031" cy="305.185" r="2.959" class="C"/><g class="C"><linearGradient id="Ai" gradientUnits="userSpaceOnUse" x1="140.867" y1="276.126" x2="140.867" y2="227.237"><stop offset="0" stop-color="#d906e3"/><stop offset="1" stop-color="#ff6df9"/></linearGradient><path opacity=".73" fill="url(#Ai)" d="M166.484 276.126h-51.127c-4.114 0-7.488-3.262-7.627-7.373l-1.135-33.629c-.146-4.311 3.311-7.887 7.626-7.887h53.291a7.63 7.63 0 0 1 7.626 7.863l-1.027 33.625a7.63 7.63 0 0 1-7.627 7.401z"/><path fill="#953da2" d="M166.484 276.386h-51.127a7.86 7.86 0 0 1-7.889-7.623l-1.136-33.629c-.072-2.158.714-4.201 2.215-5.754a7.83 7.83 0 0 1 5.674-2.406h53.291a7.82 7.82 0 0 1 5.665 2.398 7.83 7.83 0 0 1 2.224 5.734l-1.028 33.629c-.131 4.293-3.597 7.651-7.889 7.651zm-52.262-48.889c-2.015 0-3.896.801-5.297 2.248a7.31 7.31 0 0 0-2.068 5.371l1.135 33.629a7.34 7.34 0 0 0 7.365 7.119h51.127c4.007 0 7.243-3.141 7.365-7.145l1.028-33.629a7.31 7.31 0 0 0-7.365-7.593h-53.29z"/><g class="D"><path d="M128.987 239.317l-12.605 14.614 12.837 10.896v-5.625l-7.427-6.428 6.897-7.798zm22.159.657l12.606 14.613-12.838 10.896v-5.625l7.427-6.427-8.264-8.746zm-19.413 24.853l10.985-24.197h5.161l-12.44 24.197z"/></g><linearGradient id="Aj" gradientUnits="userSpaceOnUse" x1="478.434" y1="345.327" x2="478.434" y2="284.171"><stop offset="0" stop-color="#d906e3"/><stop offset="1" stop-color="#ff6df9"/></linearGradient><path opacity=".73" fill="url(#Aj)" d="M510.478 345.327h-63.959c-5.146 0-9.369-4.08-9.541-9.223l-1.418-42.068c-.182-5.396 4.139-9.865 9.539-9.865h66.666c5.389 0 9.705 4.451 9.543 9.836l-1.289 42.066c-.157 5.158-4.383 9.254-9.541 9.254z"/><path fill="#953da2" d="M510.478 345.589h-63.959a9.77 9.77 0 0 1-9.803-9.477l-1.418-42.068c-.094-2.682.887-5.217 2.748-7.146s4.371-2.992 7.053-2.992h66.666c2.674 0 5.176 1.059 7.039 2.979a9.73 9.73 0 0 1 2.764 7.131l-1.285 42.064a9.76 9.76 0 0 1-9.805 9.509zm-65.379-61.158a9.21 9.21 0 0 0-6.674 2.83c-1.766 1.826-2.691 4.23-2.605 6.768l1.422 42.064c.166 5.033 4.244 8.973 9.277 8.973h63.959a9.24 9.24 0 0 0 9.281-9.002L521.044 294c.076-2.533-.854-4.93-2.617-6.75s-4.129-2.818-6.662-2.818h-66.666z"/><path d="M448.372 290.94h58.58v34.789h-58.58z" class="I"/><path d="M472.478 299.573v17.524l14.968-9.565z" class="D"/><path d="M448.372 332.142h58.58v3.182h-58.58z" class="I"/><path d="M448.372 332.142h15.166v3.182h-15.166z" class="D"/><linearGradient id="Ak" gradientUnits="userSpaceOnUse" x1="399.074" y1="311.125" x2="405.672" y2="266.581"><stop offset="0" stop-color="#1852a0"/><stop offset="1" stop-color="#067ed3"/></linearGradient><path fill="url(#Ak)" d="M405.46 279.944l-3.057 8.746c1.686-4.832 4.116-7.97 3.057-8.746zm-3.057 8.746l-3.063 8.746c.768-.232 1.368-3.914 3.063-8.746zm3.057-8.746l-3.057 8.746c1.686-4.832 4.116-7.97 3.057-8.746zm-3.057 8.746l-3.063 8.746c.768-.232 1.368-3.914 3.063-8.746zm8.825 7.579l2.969 1.686 3.205-8.754-3.434-.572.164-.973c.246-1.502.336-2.965.293-4.361l3.594-2.256-1.641-7.707-3.441 3.295c-.479-.988-1.072-1.848-1.76-2.568-.191-.209-.393-.402-.598-.58l2.107-4.863-5.604-1.822h0l-1.348 4.898c-1.252.006-2.527.318-3.793.891l-.617-4.635-6.17 4.67 1.424 4.105a23.16 23.16 0 0 0-3.006 4.381l-2.975-1.674-3.205 8.748 3.434.578a23.66 23.66 0 0 0-.453 5.328l-3.592 2.258 1.637 7.707 3.441-3.293c.613 1.26 1.404 2.32 2.361 3.137l-2.107 4.869 5.514 2.152.854-3.107.578-2.119c1.254-.004 2.537-.316 3.803-.885l.607 4.631 6.172-4.672-1.426-4.105a22.87 22.87 0 0 0 2.428-3.354l.585-1.034zm-8.825-7.579c-1.695 4.832 0 9.814-3.063 8.746-3.072-1.082-4.193-5.865-2.502-10.689 1.697-4.832 5.553-7.875 8.621-6.803s-1.37 3.914-3.056 8.746zm3.057-8.746l-3.057 8.746c1.686-4.832 4.116-7.97 3.057-8.746zm-3.057 8.746l-3.063 8.746c.768-.232 1.368-3.914 3.063-8.746z" class="F"/><linearGradient id="Al" gradientUnits="userSpaceOnUse" x1="394.152" y1="309.977" x2="406.068" y2="265.722"><stop offset="0" stop-color="#1852a0"/><stop offset="1" stop-color="#067ed3"/></linearGradient><path fill="url(#Al)" d="M414.196 297.954l3.205-8.754-3.27-1.545-.529-.248.346-4.818 3.629-1.773-1.199-7.484-7.906-2.572 1.457 3.471 2.758-5.615-5.604-1.822-2.303-.752-5.523-2.152-1.033 3.768-4.803-2.283-6.17 4.67 1.873 5.047-5.77 15.994-2.852 10.387 5.48.598-1.785 4.119 5.525 2.15 7.904 2.576-1.268-2.539-.801-1.52 2.922.951 4.988 1.627 6.172-4.672-3.814-4.492 4.816-2.967 3.555.65zm-17.357-11.207c1.697-4.832 5.553-7.875 8.621-6.803l-3.057 8.746-3.063 8.746c-3.071-1.082-4.193-5.865-2.501-10.689z" class="F"/><linearGradient id="Am" gradientUnits="userSpaceOnUse" x1="375.418" y1="282.777" x2="372.047" y2="253.845" gradientTransform="matrix(0.9438 0.3306 -0.5202 1.4851 181.3358 -235.9155)"><stop offset="0" stop-color="#188dc1"/><stop offset="1" stop-color="#06bfe7"/></linearGradient><g class="F"><path fill="url(#Am)" d="M406.294 295.372l3.201-8.75-3.434-.574c.359-1.842.506-3.633.453-5.326l3.598-2.256-1.641-7.707-3.443 3.291c-.613-1.262-1.4-2.326-2.355-3.143l2.107-4.867-5.521-2.152-1.43 5.227c-1.252.004-2.531.316-3.795.885l-.611-4.627-6.172 4.668 1.424 4.105c-1.111 1.266-2.129 2.74-3.012 4.385l-2.975-1.676-3.205 8.75 3.438.574c-.361 1.842-.506 3.629-.457 5.326l-3.594 2.252 1.641 7.711 3.443-3.293c.613 1.262 1.404 2.326 2.355 3.145l-2.105 4.865 5.52 2.15 1.432-5.223c1.25-.004 2.529-.316 3.795-.885l.611 4.625 6.168-4.666-1.418-4.105a23.84 23.84 0 0 0 3.008-4.385l2.974 1.676zm-14.865-.518c-3.068-1.074-4.184-5.859-2.494-10.689s5.551-7.871 8.623-6.797c3.064 1.076 4.18 5.863 2.49 10.689s-5.551 7.874-8.619 6.797z"/><path fill="#601734" d="M418.019 281.038l-7.907-2.572-3.597 2.256 7.91 2.572z" class="B"/><path fill="#b3d9ff" d="M409.642 304.761l-7.913-2.574-1.417-4.106 7.904 2.574z"/><g fill="#601734"><path d="M402.673 270.907l4.334 1.252 1.465-1.4 2.879.937 1.336-3.082-7.907-2.574zm-11.518 32.205l4.139 1.723-.344-2.607s-2.226 1.173-3.795.884zm.639-23.703l6.973 3.684s1.012-1.354 1.791-1.896c0-.001-1.817-7.688-8.764-1.788z" class="B"/></g></g><path fill="#ff1d9c" d="M231.75 18.588l6.722 13.464-4.49 2.042-6.284-12.366z"/><path fill="#6877ff" d="M80.409 332.214l6.22 6.826 2.442-2.818-5.872-6.467z"/></g><path d="M396.585 100.735l-6.266 3.802-2.511-4.761 6.847-4zm30.85 240.674l-8.983 6.379-2.51-4.762 8.717-5.089z" class="C" fill="#4f31e0"/><g class="C"><linearGradient id="An" gradientUnits="userSpaceOnUse" x1="430.359" y1="72.163" x2="442.232" y2="28.071"><stop offset="0" stop-color="#188dc1"/><stop offset="1" stop-color="#06bfe7"/></linearGradient><path fill="url(#An)" d="M415.571 68.182l-1.517-35.264h46.177l-1.9 35.163z" class="F"/><linearGradient id="Ao" gradientUnits="userSpaceOnUse" x1="409.951" y1="67.077" x2="418.805" y2="34.198"><stop offset="0" stop-color="#1852a0"/><stop offset="1" stop-color="#067ed3"/></linearGradient><path fill="url(#Ao)" d="M414.054 32.918l-1.381 2.08 1.381 33.184h1.517z" class="F"/><path d="M429.386 39.959l-7.244-.776.992 24.164 6.252-.615V60.23l-3.621.087-.414-18.633 4.035.115zm14.838 0l7.248-.776-.993 24.164-6.255-.615V60.23l3.621.087.418-18.633-4.039.115z" class="D"/><linearGradient id="Ap" gradientUnits="userSpaceOnUse" x1="87.107" y1="148.095" x2="79.014" y2="118.036"><stop offset="0" stop-color="#188dc1"/><stop offset="1" stop-color="#06bfe7"/></linearGradient><path fill="url(#Ap)" d="M97.187 145.38l1.035-24.04H66.745l1.294 23.973z" class="F"/><linearGradient id="Aq" gradientUnits="userSpaceOnUse" x1="101.019" y1="144.627" x2="94.983" y2="122.212"><stop offset="0" stop-color="#1852a0"/><stop offset="1" stop-color="#067ed3"/></linearGradient><path fill="url(#Aq)" d="M98.222 121.34l.943 1.418-.943 22.622h-1.035z" class="F"/><path d="M86.096 126.177s3.451-.133 4.06.147-.158 5.905-.158 5.905l1.376 1.263-1.286 1.247s.067 5.7-.745 6.174-3.586 0-3.586 0v-1.42s2.267.142 2.64-.163.338-5.285.338-5.285l.609-.665-.609-.722.044-4.524c-.044-.649-2.684-.682-2.684-.682v-1.275zm-7.906 0s-3.451-.133-4.061.147.159 5.905.159 5.905l-1.376 1.263 1.285 1.247s-.068 5.7.745 6.174 3.586 0 3.586 0v-1.42s-2.266.142-2.639-.163-.338-5.285-.338-5.285l-.609-.665.609-.722-.045-4.524c.045-.649 2.684-.682 2.684-.682v-1.275z" class="D"/></g><g fill="#744ca2" class="C"><path d="M362.788 71.36l-7.713-20.188 20.006 4.178-12.293 16.01zm-6.883-19.479l7.037 18.416 11.215-14.604-18.252-3.812zM424.423 348l.423.31-6.773 9.244-.423-.31zm-76.812-85.045l7.278 9.056-.408.328-7.278-9.056zm-231.905 62.044l14.527 10.536-.306.423-14.527-10.536z"/><path d="M128.028 323.175l.416.316-10.857 14.292-.416-.316zM97.3 176.008l9.403 4.941-.243.463-9.403-4.941zM478.258 41.923l.395.346-10.872 12.39-.395-.346zM256.69 84.609l4.856 9.761-.469.233-4.856-9.761zm-64.818 164.328l.336.405-12.524 10.407-.336-.405z"/></g></svg>