<svg width="157" height="31" viewBox="0 0 157 31" fill="none" xmlns="http://www.w3.org/2000/svg">
<path d="M6.5568 27.3604C5.33876 27.3604 4.25329 27.1491 3.3004 26.7265C2.34752 26.2957 1.59349 25.6618 1.03833 24.8249C0.491455 23.9797 0.218018 22.9274 0.218018 21.668C0.218018 20.6073 0.412738 19.7166 0.80218 18.9957C1.19162 18.2748 1.72192 17.6948 2.39309 17.2557C3.06425 16.8165 3.82656 16.4851 4.68002 16.2613C5.54176 16.0376 6.44494 15.8802 7.38954 15.789C8.49986 15.673 9.39475 15.5653 10.0742 15.4659C10.7536 15.3582 11.2467 15.2007 11.5532 14.9936C11.8598 14.7864 12.0131 14.4799 12.0131 14.0738V13.9993C12.0131 13.2121 11.7645 12.6031 11.2674 12.1722C10.7785 11.7413 10.0825 11.5259 9.17931 11.5259C8.22642 11.5259 7.46825 11.7372 6.90481 12.1598C6.34136 12.5741 5.96849 13.0961 5.7862 13.7258L0.889182 13.3281C1.13776 12.1681 1.62664 11.1655 2.3558 10.3203C3.08497 9.46684 4.02543 8.81225 5.17718 8.35652C6.33722 7.8925 7.67955 7.6605 9.20417 7.6605C10.2648 7.6605 11.2798 7.78479 12.2493 8.03336C13.227 8.28194 14.0929 8.66724 14.8469 9.18926C15.6092 9.71128 16.21 10.3824 16.6491 11.2028C17.0883 12.0148 17.3079 12.9884 17.3079 14.1236V27H12.2866V24.3526H12.1374C11.8308 24.9492 11.4207 25.4754 10.9069 25.9311C10.3932 26.3785 9.7759 26.7307 9.05502 26.9876C8.33414 27.2361 7.5014 27.3604 6.5568 27.3604ZM8.07313 23.7063C8.85201 23.7063 9.53975 23.553 10.1363 23.2464C10.7329 22.9316 11.2011 22.509 11.5408 21.9787C11.8805 21.4484 12.0504 20.8476 12.0504 20.1765V18.1506C11.8847 18.2583 11.6568 18.3577 11.3668 18.4488C11.0851 18.5317 10.7661 18.6104 10.4098 18.685C10.0535 18.7513 9.69718 18.8134 9.34089 18.8714C8.98459 18.9211 8.66144 18.9667 8.37143 19.0082C7.74998 19.0993 7.20725 19.2443 6.74323 19.4432C6.27922 19.642 5.91878 19.9113 5.66191 20.2511C5.40504 20.5825 5.27661 20.9968 5.27661 21.4939C5.27661 22.2148 5.53762 22.7658 6.05964 23.147C6.58994 23.5199 7.2611 23.7063 8.07313 23.7063Z" fill="white"/>
<path d="M38.5303 7.90907L31.856 27H25.8901L19.2157 7.90907H24.8087L28.7736 21.5685H28.9725L32.9249 7.90907H38.5303Z" fill="white"/>
<path d="M41.2399 27V7.90907H46.5346V27H41.2399ZM43.8997 5.44814C43.1125 5.44814 42.4372 5.18713 41.8737 4.66511C41.3186 4.13481 41.041 3.50093 41.041 2.76348C41.041 2.03431 41.3186 1.40872 41.8737 0.886703C42.4372 0.3564 43.1125 0.0912476 43.8997 0.0912476C44.6868 0.0912476 45.358 0.3564 45.9132 0.886703C46.4766 1.40872 46.7583 2.03431 46.7583 2.76348C46.7583 3.50093 46.4766 4.13481 45.9132 4.66511C45.358 5.18713 44.6868 5.44814 43.8997 5.44814Z" fill="white"/>
<path d="M56.0707 1.54544V27H50.776V1.54544H56.0707Z" fill="white"/>
<path d="M68.9378 27.3729C67.0072 27.3729 65.3376 26.9627 63.929 26.1424C62.5286 25.3138 61.4473 24.162 60.685 22.6871C59.9227 21.2039 59.5415 19.4846 59.5415 17.5291C59.5415 15.557 59.9227 13.8336 60.685 12.3586C61.4473 10.8755 62.5286 9.72371 63.929 8.90339C65.3376 8.07479 67.0072 7.6605 68.9378 7.6605C70.8685 7.6605 72.5339 8.07479 73.9343 8.90339C75.3429 9.72371 76.4284 10.8755 77.1907 12.3586C77.953 13.8336 78.3341 15.557 78.3341 17.5291C78.3341 19.4846 77.953 21.2039 77.1907 22.6871C76.4284 24.162 75.3429 25.3138 73.9343 26.1424C72.5339 26.9627 70.8685 27.3729 68.9378 27.3729ZM68.9627 23.2713C69.841 23.2713 70.5743 23.0227 71.1626 22.5256C71.7509 22.0201 72.1942 21.3324 72.4925 20.4623C72.7991 19.5923 72.9524 18.6021 72.9524 17.4918C72.9524 16.3815 72.7991 15.3913 72.4925 14.5213C72.1942 13.6513 71.7509 12.9635 71.1626 12.4581C70.5743 11.9526 69.841 11.6999 68.9627 11.6999C68.0761 11.6999 67.3304 11.9526 66.7255 12.4581C66.1289 12.9635 65.6773 13.6513 65.3707 14.5213C65.0724 15.3913 64.9233 16.3815 64.9233 17.4918C64.9233 18.6021 65.0724 19.5923 65.3707 20.4623C65.6773 21.3324 66.1289 22.0201 66.7255 22.5256C67.3304 23.0227 68.0761 23.2713 68.9627 23.2713Z" fill="white"/>
<path d="M98.96 7.90907L92.2857 27H86.3198L79.6454 7.90907H85.2384L89.2033 21.5685H89.4021L93.3546 7.90907H98.96Z" fill="white"/>
<path d="M101.505 19.0082V14.6332L119.005 6.92719V11.9609L107.023 16.7709L107.185 16.5099V17.1314L107.023 16.8704L119.005 21.6804V26.7141L101.505 19.0082Z" fill="white"/>
<path d="M135.349 0.352256L127.146 30.8281H122.584L130.788 0.352256H135.349Z" fill="white"/>
<path d="M156.432 19.0082L138.932 26.7141V21.6804L150.913 16.8704L150.752 17.1314V16.5099L150.913 16.7709L138.932 11.9609V6.92719L156.432 14.6332V19.0082Z" fill="white"/>
</svg>
