<svg width="62" height="62" viewBox="0 0 62 62" fill="none" xmlns="http://www.w3.org/2000/svg">
<path d="M62 31C62 48.1208 48.1208 62 31 62C13.8792 62 0 48.1208 0 31C0 13.8792 13.8792 0 31 0C48.1208 0 62 13.8792 62 31Z" fill="white"/>
<path d="M11.2074 39V28.0909H14.0909V30.0156H14.2188C14.446 29.3764 14.8248 28.8722 15.3551 28.5028C15.8854 28.1335 16.5199 27.9489 17.2585 27.9489C18.0066 27.9489 18.6435 28.1359 19.169 28.5099C19.6946 28.8793 20.045 29.3812 20.2202 30.0156H20.3338C20.5563 29.3906 20.9588 28.8911 21.5412 28.517C22.1283 28.1383 22.822 27.9489 23.6222 27.9489C24.6402 27.9489 25.4664 28.2732 26.1009 28.9219C26.7401 29.5658 27.0597 30.4796 27.0597 31.6634V39H24.0412V32.2599C24.0412 31.6539 23.8802 31.1993 23.5582 30.8963C23.2363 30.5933 22.8338 30.4418 22.3509 30.4418C21.8016 30.4418 21.3731 30.617 21.0653 30.9673C20.7576 31.313 20.6037 31.7699 20.6037 32.3381V39H17.6705V32.196C17.6705 31.661 17.5166 31.2348 17.2088 30.9176C16.9058 30.6004 16.5057 30.4418 16.0085 30.4418C15.6723 30.4418 15.3693 30.527 15.0994 30.6974C14.8343 30.8632 14.6236 31.0975 14.4673 31.4006C14.3111 31.6989 14.233 32.0492 14.233 32.4517V39H11.2074Z" fill="black"/>
<path d="M32.5604 39.206C31.8643 39.206 31.2441 39.0852 30.6996 38.8438C30.1551 38.5975 29.7242 38.2353 29.407 37.7571C29.0945 37.2741 28.9382 36.6728 28.9382 35.9531C28.9382 35.3471 29.0495 34.8381 29.272 34.4261C29.4946 34.0142 29.7976 33.6828 30.1811 33.4318C30.5646 33.1809 31.0002 32.9915 31.4879 32.8636C31.9804 32.7358 32.4964 32.6458 33.0362 32.5938C33.6707 32.5275 34.1821 32.4659 34.5703 32.4091C34.9586 32.3475 35.2403 32.2576 35.4155 32.1392C35.5907 32.0208 35.6783 31.8456 35.6783 31.6136V31.571C35.6783 31.1212 35.5362 30.7732 35.2521 30.527C34.9728 30.2808 34.575 30.1577 34.0589 30.1577C33.5144 30.1577 33.0812 30.2784 32.7592 30.5199C32.4373 30.7566 32.2242 31.0549 32.12 31.4148L29.3217 31.1875C29.4638 30.5246 29.7431 29.9517 30.1598 29.4688C30.5765 28.9811 31.1139 28.607 31.772 28.3466C32.4349 28.0814 33.2019 27.9489 34.0732 27.9489C34.6792 27.9489 35.2592 28.0199 35.8132 28.1619C36.3719 28.304 36.8667 28.5241 37.2976 28.8224C37.7332 29.1207 38.0765 29.5043 38.3274 29.973C38.5784 30.437 38.7038 30.9934 38.7038 31.642V39H35.8345V37.4872H35.7493C35.5741 37.8281 35.3397 38.1288 35.0462 38.3892C34.7526 38.6449 34.3999 38.8461 33.9879 38.9929C33.576 39.1349 33.1001 39.206 32.5604 39.206ZM33.4268 37.1179C33.8719 37.1179 34.2649 37.0303 34.6058 36.8551C34.9467 36.6752 35.2143 36.4337 35.4084 36.1307C35.6025 35.8276 35.6996 35.4844 35.6996 35.1009V33.9432C35.6049 34.0047 35.4747 34.0616 35.3089 34.1136C35.148 34.161 34.9657 34.206 34.7621 34.2486C34.5585 34.2865 34.3549 34.322 34.1513 34.3551C33.9477 34.3835 33.763 34.4096 33.5973 34.4332C33.2422 34.4853 32.9321 34.5682 32.6669 34.6818C32.4018 34.7955 32.1958 34.9493 32.049 35.1435C31.9022 35.3329 31.8288 35.5696 31.8288 35.8537C31.8288 36.2656 31.978 36.5805 32.2763 36.7983C32.5793 37.0114 32.9628 37.1179 33.4268 37.1179Z" fill="black"/>
<path d="M41.0511 39V28.0909H44.0767V39H41.0511ZM42.571 26.6847C42.1212 26.6847 41.7353 26.5355 41.4134 26.2372C41.0961 25.9342 40.9375 25.572 40.9375 25.1506C40.9375 24.7339 41.0961 24.3764 41.4134 24.0781C41.7353 23.7751 42.1212 23.6236 42.571 23.6236C43.0208 23.6236 43.4044 23.7751 43.7216 24.0781C44.0436 24.3764 44.2045 24.7339 44.2045 25.1506C44.2045 25.572 44.0436 25.9342 43.7216 26.2372C43.4044 26.5355 43.0208 26.6847 42.571 26.6847Z" fill="black"/>
<path d="M49.5259 24.4545V39H46.5004V24.4545H49.5259Z" fill="black"/>
</svg>
