<svg width="62" height="62" viewBox="0 0 62 62" fill="none" xmlns="http://www.w3.org/2000/svg">
<path d="M62 31C62 48.1208 48.1208 62 31 62C13.8792 62 0 48.1208 0 31C0 13.8792 13.8792 0 31 0C48.1208 0 62 13.8792 62 31Z" fill="white"/>
<path d="M27.0099 27.0909V29.3636H20.4403V27.0909H27.0099ZM21.9318 24.4773H24.9574V34.6477C24.9574 34.9271 25 35.1449 25.0852 35.3011C25.1705 35.4527 25.2888 35.5592 25.4403 35.6207C25.5966 35.6823 25.7765 35.7131 25.9801 35.7131C26.1222 35.7131 26.2642 35.7012 26.4062 35.6776C26.5483 35.6491 26.6572 35.6278 26.733 35.6136L27.2088 37.8651C27.0573 37.9124 26.8442 37.9669 26.5696 38.0284C26.295 38.0947 25.9612 38.1349 25.5682 38.1491C24.839 38.1776 24.1998 38.0805 23.6506 37.858C23.1061 37.6354 22.6823 37.2898 22.3793 36.821C22.0762 36.3523 21.9271 35.7604 21.9318 35.0455V24.4773Z" fill="black"/>
<path d="M33.7784 42.3182C32.7983 42.3182 31.9579 42.1832 31.2571 41.9134C30.5611 41.6482 30.0071 41.286 29.5952 40.8267C29.1832 40.3674 28.9157 39.8513 28.7926 39.2784L31.5909 38.902C31.6761 39.1198 31.8111 39.3234 31.9957 39.5128C32.1804 39.7022 32.4242 39.8537 32.7273 39.9673C33.035 40.0857 33.4091 40.1449 33.8494 40.1449C34.5076 40.1449 35.0497 39.9839 35.4759 39.6619C35.9067 39.3447 36.1222 38.812 36.1222 38.0639V36.0682H35.9943C35.8617 36.3712 35.6629 36.6577 35.3977 36.9276C35.1326 37.1974 34.7917 37.4176 34.375 37.5881C33.9583 37.7585 33.4612 37.8438 32.8835 37.8438C32.0644 37.8438 31.3187 37.6544 30.6463 37.2756C29.9787 36.892 29.446 36.3073 29.0483 35.5213C28.6553 34.7306 28.4588 33.7315 28.4588 32.5241C28.4588 31.2884 28.66 30.2562 29.0625 29.4276C29.465 28.599 30 27.9787 30.6676 27.5668C31.34 27.1548 32.0762 26.9489 32.8764 26.9489C33.4872 26.9489 33.9986 27.053 34.4105 27.2614C34.8224 27.465 35.1539 27.7206 35.4048 28.0284C35.6605 28.3314 35.857 28.6297 35.9943 28.9233H36.108V27.0909H39.1122V38.1065C39.1122 39.0346 38.8849 39.8111 38.4304 40.4361C37.9759 41.0611 37.3461 41.5298 36.5412 41.8423C35.741 42.1596 34.8201 42.3182 33.7784 42.3182ZM33.8423 35.571C34.33 35.571 34.742 35.4503 35.0781 35.2088C35.419 34.9626 35.6795 34.6122 35.8594 34.1577C36.044 33.6984 36.1364 33.1491 36.1364 32.5099C36.1364 31.8707 36.0464 31.3168 35.8665 30.848C35.6866 30.3745 35.4261 30.0076 35.0852 29.7472C34.7443 29.4867 34.33 29.3565 33.8423 29.3565C33.3452 29.3565 32.9261 29.4915 32.5852 29.7614C32.2443 30.0265 31.9863 30.3958 31.8111 30.8693C31.6359 31.3428 31.5483 31.8897 31.5483 32.5099C31.5483 33.1397 31.6359 33.6842 31.8111 34.1435C31.991 34.598 32.2491 34.9508 32.5852 35.2017C32.9261 35.4479 33.3452 35.571 33.8423 35.571Z" fill="black"/>
</svg>
