<svg width="62" height="62" viewBox="0 0 62 62" fill="none" xmlns="http://www.w3.org/2000/svg">
<path d="M62 31C62 48.1208 48.1208 62 31 62C13.8792 62 0 48.1208 0 31C0 13.8792 13.8792 0 31 0C48.1208 0 62 13.8792 62 31Z" fill="white"/>
<path d="M30.3778 27.0909L26.5639 38H23.1548L19.3409 27.0909H22.5369L24.8026 34.8963H24.9162L27.1747 27.0909H30.3778Z" fill="black"/>
<path d="M34.6676 34.8608L34.6747 31.2315H35.1151L38.6094 27.0909H42.0824L37.3878 32.5739H36.6705L34.6676 34.8608ZM31.9261 38V23.4545H34.9517V38H31.9261ZM38.7443 38L35.5341 33.2486L37.5511 31.1108L42.2884 38H38.7443Z" fill="black"/>
</svg>
